<svg width="151" height="151" viewBox="0 0 151 151" fill="none" xmlns="http://www.w3.org/2000/svg">
<circle cx="75.5" cy="75.0137" r="75" fill="white"/>
<path fill-rule="evenodd" clip-rule="evenodd" d="M91.2105 92.6581V87.6343C91.2105 83.1227 87.5531 79.4653 83.0416 79.4653H73.2797L72.5445 75.0132C71.9812 71.5781 69.0001 69.065 65.5192 69.0908H52.163C48.6975 69.0851 45.7394 71.5935 45.1785 75.0132L44.4433 79.4653H34.6815C30.1699 79.4653 26.5125 83.1227 26.5125 87.6343V92.6581H91.2105ZM51.2236 76.1161C51.2854 75.6456 51.6885 75.2951 52.163 75.2992H65.5192C66.0027 75.2924 66.4189 75.6392 66.4995 76.1161L67.0713 79.547H50.7334L51.2236 76.1161ZM61.9249 98.7849V103.809C61.9249 105.501 60.5534 106.872 58.8615 106.872C57.1697 106.872 55.7982 105.501 55.7982 103.809V98.7849H26.5125V115.858C26.5125 120.37 30.1699 124.027 34.6815 124.027H83.1233C87.6348 124.027 91.2922 120.37 91.2922 115.858V98.7032L61.9249 98.7849ZM93.9471 25.9996C85.8193 25.9779 78.0169 29.1915 72.262 34.9311C66.5071 40.6707 63.2727 48.4644 63.2727 56.5923C63.2862 59.0881 63.6156 61.5721 64.253 63.9852C69.1132 63.5833 73.7491 66.1017 76.0571 70.3978H82.6331C82.9326 71.4325 83.2594 72.4128 83.6134 73.3386C86.6115 73.5447 89.4691 74.6877 91.7823 76.6062C90.5936 74.6479 89.6212 72.5662 88.8824 70.3978H98.6851C97.6646 73.5048 96.1772 76.4384 94.2738 79.0977C95.9951 81.3891 96.9653 84.157 97.0513 87.0216C113.236 85.3424 125.274 71.2883 124.447 55.038C123.621 38.7877 110.218 26.0277 93.9471 25.9996ZM114.165 42.8276H105.261C104.322 39.4516 102.949 36.2115 101.177 33.1883C106.472 34.8389 111.051 38.2372 114.165 42.8276ZM93.9471 33.6376C96.0507 36.4262 97.7045 39.5272 98.8485 42.8276H89.0457C90.1724 39.5196 91.8276 36.4161 93.9471 33.6376ZM70.7065 64.2711C69.07 59.2966 69.07 53.9288 70.7065 48.9543L81.2444 48.9543C80.8558 51.4816 80.6647 54.0353 80.6726 56.5923C80.6663 59.1628 80.8575 61.7299 81.2444 64.2711H70.7065ZM82.6331 42.8276H73.729C76.8738 38.2149 81.4994 34.8142 86.8401 33.1883C85.0282 36.2067 83.6142 39.4466 82.6331 42.8276ZM87.4528 64.2711C87.0132 61.7352 86.7946 59.166 86.7993 56.5923C86.7928 54.0321 87.0114 51.4762 87.4528 48.9543H100.441C100.883 51.4762 101.101 54.0321 101.095 56.5923C101.1 59.166 100.881 61.7352 100.441 64.2711H87.4528ZM101.013 80.0371C102.77 77.0064 104.142 73.7683 105.098 70.3978H114.002C110.867 74.9682 106.296 78.3607 101.013 80.0371ZM106.65 64.2711C107.037 61.7299 107.228 59.1628 107.222 56.5923C107.23 54.0353 107.038 51.4816 106.65 48.9543L117.188 48.9543C118.824 53.9288 118.824 59.2966 117.188 64.2711H106.65Z" fill="#D24726"/>
</svg>
