<svg width="151" height="151" viewBox="0 0 151 151" fill="none" xmlns="http://www.w3.org/2000/svg">
<circle cx="75.5" cy="75.0137" r="75" fill="white"/>
<path fill-rule="evenodd" clip-rule="evenodd" d="M120.637 39.9296C125.352 46.1042 127.906 53.6571 127.908 61.4258C127.911 67.3778 126.415 73.2347 123.557 78.4558L127.752 92.2541C127.94 92.8686 127.956 93.5225 127.8 94.1457C127.645 94.7689 127.322 95.3381 126.868 95.7923C126.414 96.2466 125.845 96.5688 125.222 96.7245C124.598 96.8802 123.945 96.8636 123.33 96.6764L109.553 92.4809C105.769 94.5625 101.663 95.9208 97.4427 96.5186V89.3355C100.907 88.7192 104.234 87.4619 107.25 85.6207C107.677 85.3588 108.155 85.1905 108.652 85.127C109.149 85.0634 109.654 85.1061 110.134 85.2522L119.042 87.9665L116.328 79.044C116.182 78.566 116.139 78.0626 116.201 77.5667C116.263 77.0708 116.43 76.5937 116.689 76.1667C119.306 71.8684 120.732 66.951 120.819 61.9195C120.907 56.8881 119.654 51.924 117.188 47.5372C114.723 43.1503 111.134 39.4988 106.79 36.9577C102.447 34.4166 97.5054 33.0775 92.4731 33.0779C88.0957 33.0786 83.7779 34.093 79.8581 36.0416C75.9384 37.9903 72.5231 40.8202 69.8801 44.3096C67.237 47.799 65.438 51.8531 64.624 56.1541C64.1939 58.4264 64.0449 60.7349 64.1748 63.0286H57.0739C56.7648 56.1692 58.4554 49.3468 61.968 43.4039C65.921 36.716 71.9622 31.5125 79.1621 28.5942C86.3619 25.6759 94.3213 25.2045 101.815 27.2527C109.309 29.3008 115.922 33.755 120.637 39.9296Z" fill="#D24726"/>
<path fill-rule="evenodd" clip-rule="evenodd" d="M33.2757 124.027C30.5747 124.027 27.9845 122.954 26.0746 121.045C24.1648 119.135 23.0919 116.544 23.0919 113.844V79.8978C23.0919 77.1969 24.1648 74.6067 26.0746 72.6969C27.9845 70.787 30.5747 69.7141 33.2757 69.7141H80.8001C83.501 69.7141 86.0913 70.787 88.0011 72.6969C89.9109 74.6067 90.9839 77.1969 90.9839 79.8978V113.844C90.9839 116.544 89.9109 119.135 88.0011 121.045C86.0913 122.954 83.501 124.027 80.8001 124.027H33.2757ZM42.1865 84.0392C41.8407 83.7439 41.4391 83.5212 41.0056 83.3841C40.572 83.247 40.1153 83.1984 39.6626 83.2412C39.2099 83.284 38.7705 83.4173 38.3703 83.6332C37.9701 83.8491 37.6174 84.1432 37.3331 84.4981C37.0487 84.8529 36.8386 85.2613 36.7151 85.6989C36.5916 86.1365 36.5573 86.5944 36.6142 87.0456C36.6711 87.4967 36.8181 87.9318 37.0464 88.325C37.2747 88.7183 37.5797 89.0616 37.9432 89.3348L50.673 99.5219C52.4792 100.968 54.724 101.756 57.0379 101.756C59.3517 101.756 61.5965 100.968 63.4027 99.5219L76.1325 89.3381C76.4807 89.0595 76.7705 88.7151 76.9856 88.3244C77.2006 87.9338 77.3366 87.5046 77.3858 87.0614C77.4349 86.6182 77.3963 86.1697 77.2722 85.7414C77.148 85.3132 76.9407 84.9135 76.6621 84.5654C76.3834 84.2172 76.039 83.9273 75.6483 83.7123C75.2577 83.4973 74.8285 83.3613 74.3853 83.3121C73.9421 83.263 73.4936 83.3016 73.0653 83.4257C72.637 83.5499 72.2374 83.7572 71.8892 84.0358L59.1595 94.2195C58.5574 94.7016 57.8091 94.9642 57.0379 94.9642C56.2666 94.9642 55.5183 94.7016 54.9162 94.2195L42.1865 84.0392Z" fill="#D24726"/>
</svg>
