<svg width="50" height="41" viewBox="0 0 50 41" fill="none" xmlns="http://www.w3.org/2000/svg">
<path fill-rule="evenodd" clip-rule="evenodd" d="M7.5 40.3125C5.51088 40.3125 3.60322 39.5223 2.1967 38.1158C0.790177 36.7093 0 34.8016 0 32.8125V7.8125C0 5.82338 0.790177 3.91572 2.1967 2.5092C3.60322 1.10268 5.51088 0.3125 7.5 0.3125H42.5C44.4891 0.3125 46.3968 1.10268 47.8033 2.5092C49.2098 3.91572 50 5.82338 50 7.8125V32.8125C50 34.8016 49.2098 36.7093 47.8033 38.1158C46.3968 39.5223 44.4891 40.3125 42.5 40.3125H7.5ZM14.0625 10.8625C13.8078 10.645 13.5121 10.481 13.1928 10.38C12.8735 10.279 12.5372 10.2433 12.2038 10.2748C11.8704 10.3063 11.5467 10.4045 11.252 10.5635C10.9573 10.7225 10.6975 10.9391 10.4881 11.2004C10.2787 11.4618 10.124 11.7625 10.033 12.0848C9.94209 12.4071 9.91683 12.7443 9.95874 13.0766C10.0007 13.4088 10.1089 13.7293 10.277 14.0189C10.4452 14.3085 10.6698 14.5614 10.9375 14.7625L20.3125 22.265C21.6427 23.33 23.296 23.9103 25 23.9103C26.704 23.9103 28.3573 23.33 29.6875 22.265L39.0625 14.765C39.3189 14.5598 39.5324 14.3061 39.6908 14.0184C39.8491 13.7307 39.9493 13.4147 39.9855 13.0883C40.0217 12.7619 39.9933 12.4315 39.9018 12.1161C39.8104 11.8007 39.6577 11.5064 39.4525 11.25C39.2473 10.9936 38.9936 10.7801 38.7059 10.6217C38.4182 10.4634 38.1022 10.3632 37.7758 10.327C37.4494 10.2908 37.119 10.3192 36.8036 10.4107C36.4882 10.5021 36.1939 10.6548 35.9375 10.86L26.5625 18.36C26.1191 18.715 25.568 18.9084 25 18.9084C24.432 18.9084 23.8809 18.715 23.4375 18.36L14.0625 10.8625Z" fill="#002050"/>
</svg>
