<svg width="151" height="151" viewBox="0 0 151 151" fill="none" xmlns="http://www.w3.org/2000/svg">
<circle cx="75.5" cy="75.8066" r="75" fill="white"/>
<path fill-rule="evenodd" clip-rule="evenodd" d="M67.8977 27.7697C66.7016 26.5751 64.764 26.5751 63.568 27.7697L53.6423 38.2263C53.2569 38.565 52.6799 38.565 52.2944 38.2263L39.9588 29.1176C39.0565 28.4409 37.7764 28.6237 37.0996 29.5261C30.9802 37.6664 31.2163 48.9346 37.6715 56.8114C38.0043 57.1835 38.0043 57.7463 37.6715 58.1185L27.2965 70.74C26.4839 71.6403 26.2614 72.9276 26.7247 74.0485C27.2774 75.1243 28.4182 75.767 29.6247 75.6824L52.9071 75.6824C54.1136 75.767 55.2544 75.1243 55.8072 74.0485C56.2501 72.8982 55.9603 71.5945 55.072 70.74L51.6 66.6553C51.3546 66.3136 51.3546 65.8534 51.6 65.5116C51.8067 65.1495 52.2061 64.9418 52.6212 64.9806C53.3422 65.0224 54.065 65.0224 54.786 64.9806C55.8472 65.0415 56.9109 65.0415 57.972 64.9806C63.7913 64.1211 69.0339 60.9932 72.5541 56.2804C72.8754 55.8468 73.008 55.3018 72.9218 54.7691C72.839 54.2391 72.5624 53.7588 72.1457 53.4211L58.8707 43.2913C58.6572 43.0979 58.5136 42.8394 58.4622 42.556C58.451 42.2574 58.5532 41.9656 58.7481 41.7391L67.9794 32.0994C69.1517 30.8809 69.1151 28.9431 67.8977 27.7697ZM101.106 60.2016C103.362 60.2016 105.19 58.3729 105.19 56.117V53.2169C105.19 44.1934 97.8753 36.8784 88.8518 36.8784H79.5797C77.3238 36.8784 75.4951 38.7072 75.4951 40.963C75.4951 43.2189 77.3238 45.0477 79.5797 45.0477H88.7701C93.2819 45.0477 96.9394 48.7052 96.9394 53.2169V56.117C96.9391 57.2146 97.3807 58.2661 98.1645 59.0345C98.9482 59.8029 100.008 60.2236 101.106 60.2016ZM43.9209 98.1478V87.732C43.9209 85.4761 42.0922 83.6474 39.8363 83.6474C37.5804 83.6474 35.7517 85.4761 35.7517 87.732V98.1478C35.7517 107.171 43.0667 114.486 52.0902 114.486H76.5979C78.8538 114.486 80.6826 112.658 80.6826 110.402C80.6826 108.146 78.8538 106.317 76.5979 106.317H52.0902C47.5784 106.317 43.9209 102.66 43.9209 98.1478ZM124.511 72.4555C124.511 68.5077 121.31 65.3074 117.362 65.3074L92.8547 65.3074C88.907 65.3074 85.7066 68.5077 85.7066 72.4555V117.386C85.6628 119.314 86.3952 121.179 87.7393 122.561C89.0834 123.944 90.9266 124.728 92.8547 124.739H117.362C119.294 124.739 121.144 123.958 122.491 122.573C123.837 121.188 124.566 119.317 124.511 117.386L124.511 72.4555ZM116.341 109.217C116.341 109.781 115.884 110.238 115.32 110.238H94.897C94.3331 110.238 93.8759 109.781 93.8759 109.217V74.4978C93.8759 73.9338 94.3331 73.4767 94.897 73.4767H115.32C115.884 73.4767 116.341 73.9338 116.341 74.4978V109.217Z" fill="#D24726"/>
</svg>
