<svg width="50" height="51" viewBox="0 0 50 51" fill="none" xmlns="http://www.w3.org/2000/svg">
<path d="M49.9685 42.5923C49.6433 44.0499 48.8371 45.3557 47.6799 46.2996C46.4155 47.5821 44.9088 48.6003 43.2475 49.2954C41.5862 49.9905 39.8033 50.3486 38.0025 50.3487H37.1611C33.3813 50.1435 29.6804 49.1868 26.2747 47.5346H26.2488C25.4592 47.1669 24.6436 46.7993 23.854 46.3514C19.8785 44.1224 16.232 41.3516 13.0194 38.1186C8.85002 34.2025 5.42861 29.5599 2.92253 24.4181C1.59065 21.6001 0.701679 18.5935 0.287003 15.5044C-0.322788 12.2708 0.0440264 8.92898 1.3407 5.90467C2.15931 4.54027 3.1591 3.29314 4.31278 2.19734C4.83189 1.6103 5.46656 1.13669 6.17708 0.806165C6.88761 0.475624 7.6587 0.295266 8.44212 0.276367C9.29413 0.370513 10.119 0.632991 10.8687 1.04853C11.6185 1.46407 12.2782 2.02441 12.8096 2.69701C13.9928 3.98371 15.4374 5.32477 16.6232 6.56227L18.2542 8.16739C19.2121 9.01656 19.8049 10.2023 19.9111 11.4812C19.9111 12.654 19.4787 13.7853 18.6995 14.663C18.1948 15.2768 17.659 15.8644 17.0943 16.4235L16.5688 16.9749C16.2633 17.2597 16.0303 17.6118 15.8853 18.0027C15.7559 18.3875 15.7041 18.782 15.73 19.1858C16.1468 20.3017 16.8018 21.3165 17.6458 22.1579C18.9635 23.9443 20.2787 25.4976 21.6198 27.1804C24.0455 29.9965 26.9242 32.3878 30.1373 34.256C30.4661 34.4967 30.8441 34.6572 31.2454 34.7271C31.5923 34.753 31.9444 34.7013 32.2706 34.5718C33.1897 34.0307 34.0052 33.3369 34.6887 32.5188C35.6077 31.3933 36.9273 30.6676 38.3701 30.4943C39.7584 30.5133 41.0829 31.081 42.0542 32.0735C42.5797 32.5188 43.157 33.1246 43.7111 33.7045L44.4981 34.5174L45.3136 35.3071L46.709 36.7258C47.5409 37.4646 48.321 38.2542 49.0494 39.0947C49.7795 40.1043 50.1083 41.3548 49.9685 42.5923Z" fill="#002050"/>
</svg>
