<svg width="151" height="151" viewBox="0 0 151 151" fill="none" xmlns="http://www.w3.org/2000/svg">
<circle cx="75.5" cy="75.0137" r="75" fill="white"/>
<path fill-rule="evenodd" clip-rule="evenodd" d="M124.498 42.7448C124.521 40.5601 123.668 38.4571 122.13 36.9059C120.582 35.3923 118.496 34.5551 116.332 34.5785H34.6687C32.4838 34.5338 30.3804 35.4077 28.8706 36.9876C27.3245 38.5003 26.4682 40.5821 26.5024 42.7448V72.5926C26.6596 101.441 46.7616 126.34 74.9285 132.574C75.1992 132.614 75.4744 132.614 75.7452 132.574C76.016 132.613 76.2909 132.613 76.5618 132.574C104.698 126.106 124.602 101.013 124.498 72.1435V42.7448ZM75.5002 108.075C59.152 108.074 45.8999 94.8206 45.8999 78.4724C45.8999 62.1242 59.152 48.871 75.5002 48.8696C77.7552 48.8696 79.5833 50.6977 79.5833 52.9527C79.5833 55.2078 77.7552 57.0359 75.5002 57.0359C64.1629 57.0463 54.7941 65.8827 54.1212 77.2C53.4482 88.5172 61.7039 98.4016 72.96 99.7555C84.2161 101.109 94.5801 93.4646 96.61 82.3105C97.0233 80.1053 99.1384 78.6467 101.346 79.044C103.552 79.4573 105.01 81.5724 104.613 83.7805C102.08 97.8644 89.8101 108.103 75.5002 108.075ZM104.082 56.4234C105.665 58.016 105.665 60.588 104.082 62.1806L80.8083 85.4546C77.9594 88.2778 73.3676 88.2778 70.5187 85.4546L63.2507 78.1457C62.4777 77.379 62.0429 76.3354 62.0429 75.2467C62.0429 74.158 62.4777 73.1143 63.2507 72.3477C64.8433 70.7645 67.4154 70.7645 69.008 72.3477L74.2752 77.6149C75.0776 78.372 76.3311 78.372 77.1334 77.6149L98.325 56.4234C99.9175 54.8403 102.49 54.8403 104.082 56.4234Z" fill="#D24726"/>
</svg>
