<svg width="151" height="151" viewBox="0 0 151 151" fill="none" xmlns="http://www.w3.org/2000/svg">
<circle cx="75.5" cy="75.4102" r="75" fill="white"/>
<path d="M121.057 109.636C120.443 112.387 118.922 114.852 116.738 116.633C114.351 119.053 111.508 120.975 108.372 122.287C105.237 123.599 101.872 124.275 98.4733 124.275H96.8853C89.7516 123.888 82.7669 122.082 76.3392 118.964H76.2904C74.8001 118.27 73.261 117.576 71.7707 116.731C64.2676 112.524 57.3855 107.294 51.3223 101.193C43.4534 93.8019 36.9961 85.0399 32.2664 75.3356C29.7527 70.0173 28.0749 64.3428 27.2923 58.5127C26.1414 52.4099 26.8337 46.1028 29.281 40.395C30.8259 37.8199 32.7128 35.4662 34.8902 33.3981C35.8699 32.2901 37.0678 31.3963 38.4087 30.7725C39.7497 30.1486 41.205 29.8082 42.6836 29.7726C44.2916 29.9503 45.8483 30.4456 47.2633 31.2299C48.6783 32.0142 49.9235 33.0717 50.9265 34.3411C53.1595 36.7695 55.8859 39.3005 58.1238 41.6361L61.202 44.6654C63.0099 46.2681 64.1288 48.506 64.3291 50.9196C64.3291 53.1331 63.5132 55.2683 62.0424 56.9247C61.0899 58.0832 60.0787 59.1921 59.013 60.2472L58.0212 61.288C57.4446 61.8255 57.0049 62.49 56.7312 63.2278C56.4869 63.9541 56.3892 64.6985 56.4381 65.4607C57.2247 67.5666 58.4609 69.482 60.0538 71.07C62.5408 74.4414 65.023 77.3731 67.554 80.5491C72.132 85.8639 77.5651 90.377 83.6293 93.9028C84.2498 94.3572 84.9632 94.6602 85.7206 94.7921C86.3753 94.841 87.0398 94.7432 87.6555 94.4989C89.39 93.4777 90.9292 92.1683 92.2191 90.6242C93.9537 88.5 96.4441 87.1304 99.1672 86.8033C101.787 86.8392 104.287 87.9107 106.12 89.7838C107.112 90.6242 108.202 91.7676 109.247 92.8621L110.733 94.3963L112.272 95.8866L114.905 98.5642C116.475 99.9584 117.948 101.449 119.322 103.035C120.7 104.941 121.321 107.301 121.057 109.636ZM103.242 75.6336C102.258 75.6234 101.317 75.2278 100.621 74.5318C99.9245 73.8358 99.529 72.8947 99.519 71.9104C99.5241 69.0999 98.9742 66.3158 97.9009 63.7181C96.8279 61.1206 95.2524 58.7604 93.265 56.773C91.2775 54.7855 88.9173 53.21 86.3196 52.1368C83.7221 51.0635 80.938 50.5139 78.1275 50.519C77.1401 50.519 76.1929 50.1269 75.4947 49.4284C74.7964 48.7302 74.4043 47.7832 74.4043 46.7958C74.4043 45.8083 74.7964 44.8613 75.4947 44.1631C76.1929 43.4648 77.1401 43.0726 78.1275 43.0726C81.9162 43.0668 85.6688 43.8088 89.1702 45.2559C92.6716 46.7031 95.8529 48.8272 98.5317 51.506C101.211 54.185 103.335 57.3664 104.782 60.8678C106.229 64.3692 106.971 68.1217 106.965 71.9104C106.967 72.3997 106.871 72.8845 106.684 73.3367C106.498 73.7891 106.224 74.2 105.878 74.546C105.532 74.8919 105.121 75.1663 104.668 75.3529C104.216 75.5396 103.731 75.6348 103.242 75.6336Z" fill="#D24726"/>
<path d="M120.465 73.8944C119.482 73.8844 118.541 73.4896 117.845 72.7946C117.149 72.0995 116.753 71.1597 116.742 70.1761C116.75 65.3872 115.813 60.644 113.985 56.2174C112.158 51.7909 109.476 47.7682 106.092 44.3795C102.708 40.9907 98.6895 38.3025 94.2656 36.4685C89.8417 34.6346 85.0998 33.6909 80.3109 33.6915C79.811 33.7097 79.3124 33.6269 78.8453 33.448C78.3779 33.2692 77.9516 32.998 77.5915 32.6508C77.2314 32.3035 76.9451 31.8872 76.7494 31.4267C76.5537 30.9662 76.4528 30.4711 76.4528 29.9708C76.4528 29.4705 76.5537 28.9753 76.7494 28.5149C76.9451 28.0544 77.2314 27.6381 77.5915 27.2908C77.9516 26.9435 78.3779 26.6724 78.8453 26.4935C79.3124 26.3147 79.811 26.2319 80.3109 26.25C86.0772 26.25 91.7867 27.3865 97.1133 29.5946C102.44 31.8027 107.279 35.0391 111.354 39.1187C115.429 43.1982 118.66 48.041 120.862 53.37C123.064 58.6991 124.195 64.41 124.188 70.1761C124.19 70.6654 124.094 71.1501 123.908 71.6026C123.721 72.0548 123.447 72.4657 123.101 72.8119C122.755 73.1578 122.344 73.432 121.891 73.6186C121.439 73.8053 120.954 73.8959 120.465 73.8944Z" fill="#D24726"/>
</svg>
