<svg width="151" height="151" viewBox="0 0 151 151" fill="none" xmlns="http://www.w3.org/2000/svg">
<circle cx="75.5" cy="75.0137" r="75" fill="white"/>
<path fill-rule="evenodd" clip-rule="evenodd" d="M103.069 77.0554C103.242 77.0588 103.407 76.9837 103.518 76.8512C103.586 76.6949 103.586 76.5173 103.518 76.3611C103.185 73.8828 102.468 71.4715 101.394 69.2132C99.5563 65.4964 93.6338 63.3316 85.424 60.3091L83.6677 59.6147C83.0553 58.0795 82.9692 56.3845 83.4226 54.7951C87.0718 50.8749 88.8834 45.5888 88.4057 40.2543C88.6994 36.6245 87.4797 33.0347 85.0354 30.3352C82.5912 27.6357 79.1398 26.0666 75.4987 25.9995C73.6027 26.0078 71.7326 26.4405 70.0255 27.2657C69.7613 27.4026 69.5666 27.6442 69.489 27.9315C69.4113 28.2188 69.4578 28.5255 69.6171 28.777C71.8823 32.1738 73.0774 36.1716 73.048 40.2543C73.3249 45.4555 71.9991 50.6164 69.2495 55.0401C69.1042 55.3076 69.1042 55.6304 69.2495 55.8979C69.3228 56.2092 69.5562 56.4581 69.8621 56.5514C77.6635 59.4922 83.3409 61.9837 85.7916 66.9259C87.1758 69.8369 88.0727 72.9553 88.4465 76.1568C88.5252 76.6637 88.9549 77.0418 89.4676 77.0554H103.069ZM77.541 77.0554H82.1564C82.4607 77.0724 82.7528 76.934 82.9325 76.6878C83.1345 76.4672 83.2248 76.1664 83.1775 75.8709C82.8172 73.5658 82.1295 71.3239 81.1353 69.2132C79.2973 65.4964 73.3748 63.3316 65.165 60.3091L63.2453 59.6147C62.633 58.0795 62.5468 56.3845 63.0002 54.7951C66.6495 50.8749 68.461 45.5888 67.9833 40.2543C68.277 36.6245 67.0573 33.0347 64.6131 30.3352C62.1688 27.6357 58.7174 26.0666 55.0763 25.9995C51.4425 26.0777 48.0018 27.6516 45.5665 30.3498C43.1311 33.048 41.9168 36.6315 42.2103 40.2543C41.7439 45.5112 43.5246 50.7198 47.1116 54.5908C47.5785 56.2171 47.5068 57.9508 46.9074 59.533L44.8243 60.3091C36.6554 63.3316 30.692 65.4964 28.854 69.2132C27.2817 72.9925 26.4764 77.0466 26.485 81.1399C26.485 82.2678 27.3994 83.1821 28.5273 83.1821H66.4312C66.7727 83.179 67.0919 83.0118 67.2889 82.7328C69.5211 79.223 73.3815 77.0851 77.541 77.0554ZM121.939 89.3905L110.462 92.4539C110.16 92.5326 109.838 92.456 109.604 92.2497C109.352 92.0528 109.202 91.7527 109.196 91.4328L109.196 89.3089C109.196 85.9252 106.453 83.1821 103.069 83.1821H77.541C74.1573 83.1821 71.4142 85.9252 71.4142 89.3089V117.9C71.4142 121.284 74.1573 124.027 77.541 124.027H103.069C106.453 124.027 109.196 121.284 109.196 117.9V115.858C109.202 115.538 109.352 115.238 109.604 115.041C109.838 114.835 110.16 114.758 110.462 114.837L121.939 117.9C122.544 118.067 123.191 117.946 123.695 117.573C124.239 117.176 124.546 116.531 124.512 115.858V91.3511C124.519 90.7067 124.215 90.0986 123.696 89.7173C123.191 89.3445 122.544 89.224 121.939 89.3905Z" fill="#D24726"/>
</svg>
