<svg width="1440" height="504" viewBox="0 0 1440 504" fill="none" xmlns="http://www.w3.org/2000/svg">
<g opacity="0.3">
<path d="M486.506 503.279C479.402 503.279 472.488 502.868 465.843 502.048C451.908 500.327 439.034 496.794 427.577 491.545C415.263 485.906 404.464 478.223 395.475 468.708C377.409 449.585 368.371 426.683 359.63 404.534C357.912 400.185 356.137 395.688 354.334 391.324C342.034 361.585 326.442 335.535 306.67 311.685C267.228 264.11 211.759 223.507 146.257 194.268C70.5052 160.455 -10.9404 143.611 -83.0786 146.84C-125.478 148.739 -181.499 166.798 -206.536 197.639C-221.395 215.943 -222.593 236.255 -209.999 256.377L-210.249 256.462C-216.852 245.909 -219.729 235.33 -218.798 225.018C-217.943 215.558 -213.898 206.311 -206.772 197.534C-195.44 183.573 -176.75 171.2 -152.724 161.751C-130.523 153.02 -105.797 147.652 -83.0951 146.636C-45.3429 144.947 -5.1916 148.695 36.243 157.778C73.8029 166.013 110.865 178.23 146.4 194.092C211.94 223.347 267.442 263.972 306.906 311.576C326.689 335.441 342.29 361.506 354.598 391.262C356.403 395.625 358.179 400.124 359.893 404.473C368.627 426.606 377.659 449.491 395.7 468.587C413.147 487.057 436.764 498.245 465.89 501.841C506.225 506.822 555.206 496.405 596.91 473.973C657.009 441.648 698.718 394.596 739.057 349.096C746.127 341.121 753.437 332.874 760.675 324.911C779.466 304.232 804.916 277.436 835.16 253.565C866.075 229.164 897.491 211.237 931.203 198.757C951.838 191.117 973.707 185.971 996.202 183.46C1016.98 181.139 1038.97 180.996 1061.57 183.029C1100.33 186.517 1142.09 196.372 1189.23 213.153C1282.06 246.199 1374.79 286.309 1464.84 332.372C1550.44 376.153 1634.38 425.695 1714.35 479.616L1714.16 479.765C1548.4 367.989 1371.75 278.35 1189.11 213.335C1085.93 176.604 1004.02 172.028 931.327 198.937C857.375 226.312 805.715 275.713 760.903 325.022C753.668 332.983 746.358 341.23 739.287 349.206C698.938 394.722 657.215 441.787 597.075 474.135C577.641 484.588 555.778 492.742 533.851 497.713C522.268 500.339 510.754 502.056 499.625 502.817C495.189 503.127 490.812 503.279 486.506 503.279Z" fill="#D24726"/>
<path d="M493.45 491.934C475.336 491.934 458.556 489.393 443.56 484.378C426.838 478.785 412.409 470.119 400.669 458.623C399.63 457.604 398.6 456.551 397.605 455.49C379.732 436.45 370.293 413.845 361.166 391.984C359.32 387.566 357.413 382.996 355.478 378.562C343.956 352.159 330.081 328.889 313.057 307.425C310.96 304.782 308.789 302.134 306.599 299.554C266.577 252.388 210.658 212.3 144.886 183.623C68.5878 150.387 -13.0888 134.24 -85.0978 138.158C-127.189 140.472 -182.952 158.826 -208.096 189.43C-223.153 207.756 -224.856 228.109 -213.029 248.29L-213.282 248.371C-219.481 237.794 -222.029 227.194 -220.85 216.87C-219.767 207.388 -215.557 198.121 -208.333 189.325C-196.884 175.389 -178.25 163.001 -154.45 153.503C-132.452 144.724 -107.832 139.203 -85.1226 137.955C-47.417 135.904 -7.22177 139.294 34.3447 148.028C71.9953 155.941 109.234 167.859 145.024 183.449C210.833 212.142 266.783 252.254 306.83 299.447C309.02 302.029 311.194 304.679 313.29 307.323C330.325 328.802 344.208 352.085 355.736 378.501C357.674 382.936 359.581 387.505 361.427 391.926C370.551 413.773 379.982 436.361 397.83 455.375C398.822 456.432 399.853 457.485 400.889 458.501C425.148 482.266 458.482 491.934 493.536 491.934C493.728 491.934 493.918 491.934 494.11 491.934C493.89 491.932 493.67 491.934 493.45 491.934ZM500.928 491.792C533.516 490.559 567.144 481.332 595.993 467.607C658.222 437.877 702.945 391.96 746.199 347.555C747.98 345.725 749.761 343.898 751.542 342.072C755.452 338.063 760.088 333.317 764.82 328.533C786.048 307.076 811.74 282.111 841.327 259.641C872.809 235.73 904.26 217.987 937.475 205.396C957.885 197.667 979.454 192.223 1001.58 189.214C1022.09 186.426 1043.75 185.638 1065.98 186.871C1104.37 189.003 1145.65 197.086 1192.18 211.583C1237.54 225.696 1274.84 238.98 1309.53 253.39C1358.69 273.824 1405.51 297.368 1444.84 317.702C1536.25 365.114 1625.95 418.95 1711.43 477.716L1711.25 477.864C1625.77 419.106 1536.08 365.274 1444.68 317.868C1405.36 297.536 1358.55 273.996 1309.4 253.568C1274.71 239.162 1237.43 225.882 1192.08 211.774C1090.72 180.192 1009.85 178.221 937.601 205.578C862.614 234.001 809.211 284.01 765.042 328.654C760.308 333.439 755.674 338.183 751.764 342.194C749.983 344.018 748.203 345.846 746.422 347.677C703.154 392.096 658.414 438.029 596.141 467.781C580.7 475.126 564.27 480.962 547.303 485.123C531.51 488.992 515.943 491.229 500.928 491.792Z" fill="#D24726"/>
<path d="M501.109 480.854C498.93 480.854 496.764 480.819 494.615 480.748C476.517 480.159 459.768 477.1 444.835 471.651C428.504 465.692 414.354 456.866 402.782 445.416C401.754 444.396 400.729 443.341 399.74 442.28C382.068 423.333 372.235 401.03 362.73 379.464C360.748 374.969 358.698 370.321 356.621 365.809C344.53 339.496 330.289 316.412 313.081 295.237C310.952 292.619 308.748 289.993 306.525 287.434C265.923 240.678 209.553 201.104 143.512 172.991C66.6694 140.332 -15.238 124.879 -87.1206 129.485C-127.593 132.119 -183.194 149.427 -209.63 181.199C-224.903 199.555 -227.127 219.963 -216.06 240.214L-216.316 240.289C-222.114 229.68 -224.326 219.056 -222.897 208.713C-221.584 199.201 -217.198 189.91 -209.863 181.094C-198.294 167.19 -179.72 154.798 -156.148 145.256C-134.356 136.434 -109.849 130.763 -87.1453 129.285C-49.4837 126.873 -9.24454 129.902 32.4511 138.289C70.1951 145.881 107.607 157.497 143.65 172.817C209.728 200.948 266.129 240.544 306.755 287.326C308.979 289.888 311.185 292.514 313.315 295.136C330.531 316.323 344.78 339.421 356.876 365.749C358.954 370.262 361.004 374.911 362.985 379.406C372.488 400.959 382.312 423.245 399.963 442.171C400.952 443.232 401.971 444.285 402.999 445.301C450.021 491.826 533.351 486.831 595.075 461.244C659.9 434.135 708.076 389.078 754.666 345.505L755.144 345.058C759.656 340.834 764.322 336.469 768.966 332.158C817.972 286.682 871.836 239.947 943.751 212.036C963.941 204.216 985.213 198.474 1006.97 194.969C1027.21 191.71 1048.55 190.278 1070.39 190.715C1108.48 191.477 1149.28 197.79 1195.13 210.015C1243.32 222.818 1279.59 234.586 1312.72 248.174C1359.92 267.573 1405.64 292.086 1445.98 313.715C1535.8 362.128 1624.13 416.667 1708.52 475.812L1708.33 475.958C1623.95 416.819 1535.63 362.286 1445.82 313.877C1405.49 292.252 1359.77 267.743 1312.58 248.35C1279.47 234.766 1243.21 223.002 1195.04 210.204C1095.65 183.704 1015.84 184.341 943.878 212.212C872.009 240.105 818.167 286.82 769.181 332.28C764.536 336.59 759.87 340.958 755.358 345.179L754.88 345.627C731.662 367.34 707.655 389.793 681.731 409.848C652.596 432.385 624.294 449.253 595.206 461.416C564.775 474.03 531.626 480.854 501.109 480.854Z" fill="#D24726"/>
<path d="M1705.42 474.048C1622.13 414.529 1535.18 359.296 1446.97 309.884C1443.23 307.806 1439.49 305.719 1435.73 303.625C1397.53 282.321 1358.02 260.292 1315.77 243.13C1274.78 226.527 1233.24 216.375 1198.01 208.634C1100.77 187.135 1022.01 190.381 950.162 218.845C876.402 248.151 819.249 296.808 773.327 335.906C770.571 338.253 767.82 340.603 765.064 342.956C763.03 344.693 760.994 346.43 758.958 348.166C732.81 370.45 709.026 390.374 682.747 408.554C652.725 429.322 623.788 444.532 594.277 455.054C566.621 464.917 537.077 470.134 509.597 470.137C504.59 470.137 499.658 469.964 494.81 469.614C477.113 468.336 460.729 464.747 446.115 458.944C430.169 452.612 416.299 443.618 404.887 432.211C403.867 431.188 402.851 430.132 401.867 429.069C384.403 410.22 374.189 388.231 364.312 366.967C362.185 362.388 359.984 357.65 357.758 353.051C345.09 326.821 330.482 303.921 313.103 283.042C310.94 280.444 308.701 277.842 306.447 275.305C265.263 228.961 208.445 189.901 142.138 162.348C64.7511 130.266 -17.3844 115.512 -89.1406 120.801C-138.195 124.488 -188.358 145.922 -211.128 172.922C-226.64 191.317 -229.391 211.789 -219.089 232.125L-219.347 232.196C-224.742 221.548 -226.621 210.892 -224.934 200.523C-223.381 190.976 -218.814 181.654 -211.361 172.814C-199.671 158.951 -181.158 146.56 -157.822 136.982C-136.239 128.124 -111.858 122.305 -89.1681 120.6C-51.5505 117.826 -11.2701 120.497 30.5547 128.535C68.3894 135.808 105.98 147.124 142.275 162.17C208.623 189.739 265.472 228.821 306.681 275.194C308.937 277.733 311.177 280.337 313.339 282.934C330.729 303.826 345.343 326.738 358.019 352.981C360.245 357.581 362.446 362.317 364.573 366.899C374.444 388.15 384.653 410.125 402.095 428.951C403.079 430.012 404.093 431.067 405.109 432.087C454.197 481.155 537.63 475.026 594.159 454.87C661.604 430.82 713.214 386.838 758.752 348.032C760.788 346.295 762.822 344.558 764.858 342.822C767.611 340.47 770.365 338.119 773.121 335.772C799.334 313.455 825.221 291.768 853.679 271.784C886.405 248.801 917.925 231.427 950.036 218.667C970.014 210.752 990.984 204.712 1012.37 200.717C1032.35 196.982 1053.36 194.908 1074.82 194.552C1112.66 193.924 1152.98 198.468 1198.1 208.44C1233.34 216.185 1274.9 226.341 1315.9 242.954C1358.17 260.122 1397.69 282.157 1435.9 303.465C1439.66 305.559 1443.4 307.646 1447.14 309.724C1535.36 359.14 1622.32 414.379 1705.61 473.905L1705.42 474.048Z" fill="#D24726"/>
<path d="M1702.51 472.14C1618.75 411.102 1533.16 355.166 1448.12 305.89C1443.03 302.942 1437.82 299.903 1432.79 296.965C1396.73 275.924 1359.45 254.166 1318.95 237.909C1278.52 221.733 1236.63 213.237 1200.98 207.062C1106.11 190.465 1028.4 196.317 956.444 225.477C887.81 253.392 834.039 295.369 782.039 335.964L776.328 340.42C771.819 343.941 767.155 347.579 762.558 351.149C710.505 391.51 658.397 429.339 593.349 448.687C577.564 453.383 561.356 456.636 545.17 458.364C527.789 460.216 510.905 460.243 494.986 458.44C477.696 456.483 461.683 452.37 447.393 446.217C431.842 439.521 418.251 430.363 407 419C405.986 417.972 404.978 416.913 404.002 415.852C386.753 397.115 376.17 375.45 365.937 354.498C363.653 349.823 361.29 344.988 358.904 340.292C345.648 314.143 330.677 291.427 313.133 270.848C310.94 268.276 308.668 265.695 306.379 263.178C264.614 217.244 207.349 178.699 140.77 151.707C62.8358 120.206 -19.5305 106.147 -91.1631 112.122C-139.77 116.262 -189.704 137.846 -212.59 164.611C-228.361 183.053 -231.655 203.604 -222.12 224.044L-222.381 224.11C-227.371 213.416 -228.913 202.719 -226.965 192.32C-225.167 182.733 -220.411 173.374 -212.826 164.506C-201.01 150.689 -182.562 138.31 -159.473 128.704C-138.105 119.814 -113.856 113.855 -91.1961 111.923C-53.6224 108.789 -13.3008 111.099 28.6559 118.789C66.5841 125.742 104.347 136.757 140.899 151.531C207.516 178.537 264.815 217.107 306.604 263.066C308.893 265.585 311.169 268.169 313.362 270.74C330.916 291.33 345.895 314.058 359.157 340.222C361.542 344.917 363.906 349.754 366.189 354.429C376.418 375.369 386.995 397.024 404.225 415.739C405.198 416.796 406.206 417.852 407.217 418.881C455.123 467.266 534.723 465.908 593.242 448.501C658.238 429.169 710.324 391.355 762.354 351.011C766.952 347.442 771.615 343.803 776.125 340.282L781.835 335.826C807.362 315.9 833.754 295.294 862.418 276.126C894.883 254.417 925.595 237.792 956.307 225.299C976.082 217.285 996.755 210.947 1017.75 206.465C1037.49 202.249 1058.17 199.532 1079.23 198.388C1116.9 196.341 1156.75 199.115 1201.05 206.864C1236.71 213.043 1278.62 221.541 1319.08 237.731C1359.6 253.994 1396.89 275.758 1432.96 296.805C1437.99 299.743 1443.19 302.78 1448.28 305.73C1533.34 355.01 1618.93 410.95 1702.7 471.994L1702.51 472.14Z" fill="#D24726"/>
<path d="M1699.59 470.236C1616.56 408.52 1532.33 351.883 1449.26 301.903C1443.02 298.147 1436.62 294.241 1430.43 290.465C1396.32 269.65 1361.05 248.127 1322.14 232.697C1281.89 216.798 1239.81 210.026 1203.96 205.498C1111.71 193.672 1035.05 202.131 962.724 232.118C899.602 258.397 847.777 295.64 797.656 331.656C792.382 335.447 786.928 339.364 781.613 343.161C775.372 347.619 770.604 351.007 766.155 354.141C742.327 370.918 713.957 390.236 684.185 406.305C652.635 423.331 622.618 435.115 592.417 442.331C576.537 446.125 560.397 448.519 544.445 449.442C527.317 450.434 510.733 449.705 495.157 447.273C478.281 444.639 462.642 440.005 448.669 433.499C433.516 426.445 420.207 417.123 409.111 405.796C408.111 404.77 407.108 403.709 406.135 402.644C389.114 384.032 378.176 362.702 367.597 342.074C365.143 337.289 362.606 332.343 360.048 327.538C346.195 301.461 330.858 278.932 313.158 258.658C310.932 256.109 308.627 253.552 306.305 251.055C263.961 205.533 206.244 167.502 139.396 141.071C60.9206 110.149 -21.6765 96.7875 -93.1826 103.445C-133.87 107.316 -187.011 125.15 -214.013 156.262C-230.067 174.761 -233.92 195.405 -225.151 215.962L-225.412 216.023C-229.998 205.274 -231.196 194.53 -228.976 184.091C-226.926 174.455 -221.971 165.056 -214.244 156.153C-202.301 142.393 -183.922 130.034 -161.089 120.408C-139.935 111.491 -115.832 105.397 -93.2156 103.244C-55.686 99.7497 -15.3203 101.7 26.7628 109.041C64.7816 115.674 102.721 126.389 139.525 140.893C206.412 167.338 264.161 205.391 306.53 250.94C308.852 253.436 311.161 255.997 313.386 258.549C331.095 278.833 346.44 301.374 360.301 327.463C362.862 332.27 365.398 337.216 367.852 342.001C378.424 362.619 389.358 383.937 406.36 402.529C407.333 403.592 408.333 404.65 409.333 405.675C449.188 446.36 517.6 459.991 592.332 442.135C660.01 425.965 715.218 389.724 765.966 353.991C770.415 350.857 775.18 347.47 781.421 343.011C786.735 339.215 792.19 335.297 797.463 331.506C822.138 313.776 847.651 295.442 874.864 278.274C905.636 258.858 934.334 243.701 962.592 231.937C982.177 223.818 1002.55 217.183 1023.14 212.218C1042.65 207.515 1063.01 204.156 1083.65 202.23C1121.23 198.727 1160.6 199.73 1204 205.294C1239.88 209.825 1281.99 216.6 1322.27 232.512C1361.2 247.953 1396.48 269.482 1430.6 290.303C1436.79 294.079 1443.19 297.985 1449.44 301.741C1532.51 351.728 1616.74 408.368 1699.79 470.088L1699.59 470.236Z" fill="#D24726"/>
<path d="M1696.68 468.33C1614.36 405.932 1531.5 348.593 1450.41 297.911C1443.51 293.601 1436.42 289.075 1429.57 284.7C1396.92 263.857 1363.17 242.306 1325.32 227.478C1285.04 211.77 1242.87 206.759 1206.93 203.929C1118.86 196.808 1041.03 208.199 969.002 238.752C911.648 263.191 862.484 295.885 814.937 327.503C805.333 333.889 795.405 340.494 785.751 346.789C779.845 350.642 774.613 354.025 769.749 357.131C747.13 371.559 717.042 390.06 684.89 405.178C652.585 420.368 622.029 430.441 591.48 435.971C558.16 442.002 524.906 442.047 495.316 436.102C478.863 432.796 463.595 427.641 449.935 420.779C435.186 413.371 422.161 403.887 411.215 392.595C410.223 391.566 409.228 390.503 408.261 389.438C391.482 370.968 380.204 349.988 369.3 329.7C366.662 324.792 363.936 319.718 361.185 314.788C346.725 288.78 331.023 266.433 313.18 246.473C310.921 243.946 308.582 241.411 306.227 238.936C263.303 193.825 205.139 156.307 138.021 130.44C59.0047 100.1 -23.8233 87.4347 -95.2057 94.7744C-143.582 99.8565 -191.884 121.197 -215.396 147.875C-231.757 166.44 -236.179 187.192 -228.182 207.887L-228.446 207.942C-232.626 197.127 -233.478 186.327 -230.98 175.843C-228.671 166.153 -223.505 156.705 -215.627 147.764C-203.557 134.069 -185.25 121.738 -162.683 112.104C-141.752 103.169 -117.8 96.9409 -95.2442 94.572C-57.7585 90.7168 -17.3489 92.3083 24.8633 99.2997C62.9756 105.613 101.091 116.028 138.148 130.258C205.304 156.14 263.501 193.679 306.453 238.819C308.808 241.293 311.146 243.83 313.408 246.359C331.259 266.331 346.969 288.689 361.438 314.709C364.188 319.639 366.914 324.715 369.553 329.623C380.451 349.901 391.724 370.871 408.486 389.323C409.454 390.388 410.446 391.447 411.438 392.475C450.608 432.897 517.888 449.083 591.414 435.774C658.443 423.64 716.652 390.732 769.568 356.979C774.429 353.873 779.664 350.492 785.567 346.639C795.218 340.344 805.149 333.741 814.751 327.355C862.308 295.731 911.481 263.029 968.862 238.58C988.274 230.345 1008.35 223.415 1028.53 217.976C1047.83 212.777 1067.86 208.774 1088.06 206.079C1125.63 201.068 1164.52 200.3 1206.95 203.73C1242.92 206.563 1285.13 211.576 1325.44 227.302C1363.32 242.14 1397.09 263.699 1429.75 284.55C1436.6 288.925 1443.68 293.449 1450.58 297.759C1531.69 348.445 1614.56 405.788 1696.87 468.191L1696.68 468.33Z" fill="#D24726"/>
<path d="M1693.76 466.421C1612.18 403.334 1530.69 345.297 1451.55 293.919C1444.28 289.197 1436.8 284.198 1429.56 279.363C1398.11 258.344 1365.59 236.609 1328.5 222.259C1288.06 206.685 1245.85 203.459 1209.89 202.358C1125.16 199.572 1048.41 213.646 975.282 245.386C923.995 267.751 878.277 296.057 834.061 323.43C818.859 332.843 804.498 341.733 789.892 350.414C783.951 353.947 778.54 357.121 773.346 360.116C739.834 379.422 711.953 393.381 685.599 404.043C652.538 417.421 621.447 425.783 590.548 429.605C578.561 431.088 566.618 431.827 554.893 431.827C534.107 431.827 513.994 429.51 495.478 424.922C461.969 416.619 434.329 401.297 413.326 379.384C412.337 378.345 411.35 377.282 410.394 376.221C393.87 357.911 382.276 337.303 371.064 317.372C368.223 312.322 365.288 307.102 362.328 302.026C347.25 276.079 331.179 253.918 313.207 234.276C310.915 231.771 308.544 229.259 306.156 226.807C262.652 182.106 204.037 145.102 136.65 119.797C57.0921 90.039 -25.964 78.0687 -97.2228 86.0908C-145.8 91.673 -192.708 112.609 -216.723 139.429C-233.417 158.071 -238.424 178.946 -231.208 199.799L-231.474 199.849C-235.242 188.96 -235.742 178.095 -232.958 167.557C-230.381 157.801 -224.997 148.301 -216.951 139.317C-204.756 125.697 -186.528 113.407 -164.236 103.773C-143.53 94.8235 -119.746 88.4739 -97.2641 85.8903C-59.8223 81.6748 -19.3688 82.9058 22.9699 89.549C61.1756 95.5443 99.4637 105.66 136.776 119.615C204.202 144.936 262.85 181.961 306.381 226.687C308.769 229.141 311.141 231.654 313.435 234.161C331.418 253.813 347.497 275.986 362.581 301.943C365.541 307.019 368.478 312.241 371.317 317.291C382.523 337.212 394.112 357.812 410.622 376.106C411.578 377.165 412.562 378.227 413.551 379.264C452.771 420.188 517.267 438.464 590.502 429.403C660.216 420.778 721.964 389.457 773.176 359.954C778.367 356.96 783.778 353.787 789.719 350.254C804.322 341.573 818.683 332.685 833.885 323.272C878.106 295.893 923.836 267.583 975.141 245.21C994.408 236.847 1014.18 229.619 1033.92 223.723C1053.03 218.013 1072.74 213.366 1092.48 209.914C1130.13 203.332 1168.54 200.793 1209.9 202.153C1245.89 203.255 1288.14 206.484 1328.63 222.077C1365.74 236.436 1398.28 258.182 1429.75 279.209C1436.98 284.044 1444.46 289.043 1451.73 293.763C1530.87 345.145 1612.37 403.189 1693.96 466.28L1693.76 466.421Z" fill="#D24726"/>
<path d="M1690.85 464.512C1608.86 399.834 1530.96 342.726 1452.7 289.924C1445.23 284.887 1437.88 279.742 1430.09 274.295C1399.66 253.003 1368.2 230.988 1331.68 217.039C1290.73 201.471 1246.67 200.175 1212.86 200.787C1131.98 202.058 1056.32 218.817 981.561 252.021C936.705 272.04 895.29 296.079 855.238 319.33C834.188 331.549 814.306 343.088 794.031 354.04C788.013 357.294 782.421 360.258 776.941 363.103C742.973 380.71 714.174 393.356 686.303 402.905C652.475 414.495 620.848 421.146 589.614 423.24C573.566 424.315 557.627 424.112 542.241 422.638C525.951 421.077 510.271 418.083 495.638 413.74C463.203 404.112 436.22 388.11 415.437 366.176C414.456 365.136 413.477 364.07 412.527 363.01C396.28 344.888 384.395 324.673 372.9 305.124C369.833 299.908 366.662 294.514 363.472 289.27C347.761 263.38 331.328 241.403 313.232 222.085C310.905 219.603 308.5 217.112 306.085 214.683C262.001 170.393 202.938 133.903 135.282 109.159C72.8359 86.4148 8.43887 74.5477 -50.6133 74.5477C-67.3075 74.5477 -83.562 75.4953 -99.2394 77.4128C-147.231 83.3979 -193.845 104.409 -218 130.941C-235.049 149.67 -240.663 170.687 -234.236 191.718L-234.505 191.762C-237.86 180.788 -238.001 169.849 -234.923 159.249C-232.07 149.423 -226.453 139.86 -218.231 130.828C-205.909 117.292 -187.767 105.053 -165.761 95.429C-144.988 86.3439 -122.001 80.0449 -99.2889 77.2143C-61.8911 72.6384 -21.3936 73.5111 21.0743 79.804C59.3706 85.4773 97.8374 95.2913 135.403 108.975C203.097 133.733 262.196 170.243 306.307 214.559C308.726 216.989 311.133 219.481 313.461 221.966C331.564 241.294 348.006 263.281 363.725 289.183C366.915 294.427 370.089 299.821 373.156 305.039C384.645 324.58 396.525 344.787 412.757 362.894C413.708 363.953 414.686 365.018 415.665 366.057C454.53 407.072 517.921 427.838 589.592 423.035C662.115 418.174 727.727 388.361 776.787 362.933C782.267 360.088 787.856 357.124 793.874 353.872C814.146 342.924 834.026 331.383 855.073 319.166C895.131 295.913 936.551 271.868 981.424 251.843C1019.92 234.748 1057.69 222.29 1096.9 213.753C1134.72 205.521 1172.65 201.212 1212.86 200.58C1235.8 200.165 1254.52 200.886 1271.77 202.846C1294.04 205.377 1313.68 209.959 1331.82 216.855C1368.36 230.816 1399.84 252.843 1430.29 274.145C1438.07 279.592 1445.42 284.735 1452.89 289.772C1531.16 342.576 1609.06 399.688 1691.06 464.37L1690.85 464.512Z" fill="#D24726"/>
<path d="M1687.94 462.607C1606.7 397.22 1530.13 339.431 1453.84 285.934C1446.3 280.641 1438.85 275.188 1430.97 269.416C1401.46 247.787 1370.93 225.42 1334.87 211.822C1293.58 196.326 1249.56 196.946 1215.84 199.216C1139.51 204.174 1064.93 223.618 987.841 258.654C949.858 276 913.694 295.851 878.72 315.049C851.072 330.225 824.96 344.56 798.172 357.662C792.119 360.626 786.183 363.461 780.536 366.085C746.502 381.886 715.908 393.555 687.007 401.759C652.401 411.583 620.238 416.528 588.68 416.872C572.624 417.046 556.748 415.977 541.505 413.691C525.525 411.294 510.147 407.546 495.797 402.549C464.475 391.642 438.147 374.96 417.545 352.965C416.577 351.926 415.605 350.859 414.657 349.792C398.715 331.891 386.572 312.103 374.827 292.967C371.504 287.553 368.067 281.953 364.612 276.508C348.259 250.666 331.46 228.876 313.257 209.888C310.897 207.428 308.459 204.96 306.011 202.552C261.347 158.674 201.834 122.698 133.908 98.5148C53.2704 69.9254 -30.2501 59.3481 -101.262 68.7308C-148.632 75.0986 -194.936 96.1641 -219.226 122.395C-236.659 141.223 -242.897 162.398 -237.269 183.633L-237.539 183.672C-240.473 172.602 -240.248 161.578 -236.865 150.905C-233.724 140.998 -227.868 131.366 -219.454 122.279C-207.011 108.841 -188.959 96.6622 -167.25 87.0588C-146.717 77.9758 -123.916 71.5695 -101.311 68.5303C-63.9545 63.596 -23.4158 64.1062 19.1785 70.0509C57.5682 75.4084 96.2081 84.9227 134.026 98.3305C201.993 122.526 261.54 158.524 306.228 202.429C308.679 204.836 311.12 207.306 313.48 209.769C331.694 228.767 348.498 250.567 364.86 276.419C368.317 281.864 371.752 287.464 375.077 292.88C386.816 312.008 398.954 331.788 414.885 349.677C415.833 350.742 416.805 351.809 417.77 352.845C457.045 394.774 517.74 417.443 588.675 416.665C646.232 416.038 707.15 399.909 780.387 365.909C786.032 363.285 791.965 360.452 798.019 357.488C824.798 344.388 850.91 330.057 878.552 314.881C913.531 295.681 949.701 275.826 987.695 258.476C1026.56 240.81 1063.73 227.439 1101.31 217.592C1139.39 207.618 1176.84 201.538 1215.81 199.007C1249.58 196.733 1293.64 196.116 1334.99 211.635C1371.1 225.25 1401.64 247.627 1431.17 269.266C1439.05 275.038 1446.49 280.489 1454.03 285.78C1530.32 339.28 1606.9 397.072 1688.14 462.463L1687.94 462.607Z" fill="#D24726"/>
<path d="M1685.02 460.7C1604.54 394.602 1529.3 336.129 1454.99 281.943C1447.45 276.442 1440 270.726 1432.11 264.674C1403.43 242.659 1373.77 219.894 1338.05 206.604C1296.37 191.165 1252.43 193.706 1218.81 197.644C1146.99 205.895 1075.6 227.39 994.121 265.289C963.563 279.568 933.701 295.231 904.822 310.378C869.746 328.775 836.616 346.154 802.312 361.289C796.132 364.018 790.015 366.638 784.132 369.072C749.487 383.395 717.948 393.713 687.712 400.613C670.776 404.478 654.057 407.279 638.02 408.937C620.913 410.705 603.999 411.233 587.747 410.508C554.774 409.036 523.892 402.593 495.961 391.36C465.796 379.228 440.124 361.868 419.659 339.757C418.698 338.711 417.733 337.642 416.79 336.581C401.19 318.943 388.829 299.625 376.878 280.945C373.259 275.289 369.519 269.442 365.757 263.752C348.744 237.953 331.58 216.347 313.284 197.697C310.89 195.257 308.417 192.811 305.938 190.428C260.695 146.959 200.733 111.498 132.538 87.8789C51.3619 59.8746 -32.3867 49.9938 -103.28 60.0548C-179.188 70.9945 -253.157 118.262 -240.296 175.552L-240.568 175.585C-243.786 161.254 -241.901 147.135 -234.968 133.618C-228.636 121.273 -218.246 109.655 -204.086 99.0899C-190.92 89.2658 -175.124 80.7841 -157.141 73.8798C-140.037 67.3135 -121.431 62.4622 -103.335 59.8543C-66.0224 54.5596 -25.4397 54.7115 17.2838 60.3079C55.767 65.3475 94.5827 74.5621 132.654 87.6966C200.887 111.332 260.884 146.813 306.155 190.307C308.637 192.692 311.11 195.138 313.506 197.58C331.811 216.238 348.983 237.856 366.004 263.665C369.766 269.355 373.506 275.202 377.126 280.86C389.074 299.534 401.429 318.844 417.021 336.471C417.961 337.532 418.923 338.601 419.885 339.646C459.217 382.137 518.838 407.23 587.764 410.308C646.115 412.909 710.303 399.366 783.997 368.898C789.878 366.464 795.992 363.846 802.172 361.116C836.468 345.986 869.592 328.609 904.662 310.214C933.544 295.065 963.41 279.4 993.973 265.119C1075.48 227.204 1146.91 205.701 1218.76 197.444C1241.36 194.798 1260.06 193.951 1277.64 194.783C1300.1 195.846 1319.9 199.653 1338.17 206.422C1373.93 219.726 1403.61 242.505 1432.31 264.532C1440.19 270.582 1447.64 276.298 1455.18 281.797C1529.5 335.987 1604.74 394.462 1685.22 460.564L1685.02 460.7Z" fill="#D24726"/>
<path d="M1682.11 458.791C1602.4 391.972 1528.48 332.819 1456.14 277.949C1448.65 272.271 1441.25 266.325 1433.42 260.026C1405.51 237.589 1376.66 214.388 1341.24 201.383C1298.65 185.815 1252.66 190.895 1221.78 196.07C1137.95 209.943 1062.83 242.198 1000.4 271.923C977.967 282.65 955.587 294.013 933.941 305.001C890.519 327.045 849.508 347.865 806.457 364.914C800.126 367.422 793.827 369.826 787.732 372.059C752.412 384.975 719.928 393.94 688.424 399.464C652.711 405.726 618.529 407.302 586.819 404.143C554.244 400.897 523.73 392.831 496.129 380.166C467.179 366.884 442.164 348.845 421.773 326.551C420.823 325.504 419.864 324.433 418.926 323.368C403.713 306.054 391.199 287.267 379.094 269.096C375.129 263.142 371.026 256.986 366.904 250.995C348.973 224.872 331.943 204.064 313.315 185.505C310.888 183.087 308.385 180.666 305.87 178.303C260.042 135.247 199.629 100.299 131.165 77.2395C49.4501 49.8224 -34.5293 40.6361 -105.302 51.3754C-181.482 63.0886 -253.939 109.714 -243.326 167.47L-243.598 167.497C-246.231 153.168 -243.953 139.063 -236.83 125.576C-230.301 113.219 -219.85 101.589 -205.764 91.0118C-192.628 81.1473 -176.915 72.6028 -159.058 65.6114C-142.056 58.954 -123.485 53.963 -105.357 51.1749C-68.0853 45.5198 -27.4614 45.3133 15.3884 50.5594C53.9651 55.2811 92.9567 64.1961 131.281 77.0553C199.786 100.127 260.231 135.095 306.082 178.177C308.596 180.542 311.103 182.966 313.532 185.383C332.172 203.95 349.207 224.771 367.146 250.904C371.268 256.895 375.37 263.053 379.336 269.007C391.438 287.171 403.95 305.953 419.152 323.258C420.089 324.323 421.045 325.393 421.996 326.439C461.633 369.777 520.18 397.301 586.852 403.943C646.649 409.899 712.316 399.409 787.609 371.877C793.701 369.645 800 367.244 806.325 364.735C849.365 347.691 890.371 326.875 933.784 304.833C955.43 293.845 977.813 282.48 1000.25 271.751C1042.23 251.765 1077.15 236.998 1110.15 225.281C1148.99 211.488 1185.48 201.869 1221.72 195.871C1243.8 192.17 1263.06 190.494 1280.58 190.749C1303.13 191.077 1323.01 194.495 1341.36 201.201C1376.82 214.222 1405.7 237.438 1433.62 259.888C1441.45 266.185 1448.85 272.132 1456.33 277.805C1528.68 332.678 1602.6 391.835 1682.32 458.655L1682.11 458.791Z" fill="#D24726"/>
<path d="M1679.2 456.883C1600.25 389.342 1527.66 329.506 1457.28 273.955C1449.9 268.13 1442.6 261.977 1434.86 255.461C1407.69 232.573 1379.6 208.906 1344.42 196.164C1301.37 180.632 1255.5 187.774 1224.75 194.498C1148.8 210.961 1081.06 242.308 1006.69 278.557C993.272 285.12 979.706 291.892 966.584 298.444C916.119 323.64 863.94 349.693 810.598 368.539C804.118 370.831 797.633 373.02 791.326 375.045C755.767 386.448 721.384 394.276 689.13 398.311C652.593 402.883 617.858 402.703 585.882 397.779C553.763 392.832 523.62 383.14 496.288 368.971C468.629 354.631 444.265 335.917 423.875 313.347C422.933 312.298 421.982 311.225 421.05 310.16C406.296 293.251 393.702 275.075 381.523 257.498C377.134 251.165 372.597 244.617 368.038 238.245C349.407 212.148 332.023 191.518 313.331 173.319C310.877 170.93 308.337 168.529 305.787 166.184C259.387 123.533 198.529 89.0997 129.791 66.6027C47.5397 39.7728 -36.6678 31.283 -107.325 42.6985C-181.087 54.7458 -254.882 99.7357 -246.361 159.389L-246.633 159.409C-248.68 145.08 -246.009 130.992 -238.697 117.535C-231.972 105.164 -221.458 93.5238 -207.449 82.9343C-181.601 63.3996 -145.129 48.6614 -107.385 42.4981C-70.1579 36.4846 -29.49 35.9177 13.489 40.8135C52.1591 45.2194 91.3239 53.8326 129.901 66.4165C198.678 88.9256 259.571 123.381 306.002 166.052C308.555 168.399 311.094 170.8 313.55 173.192C332.251 191.4 349.643 212.038 368.28 238.145C372.839 244.519 377.379 251.067 381.767 257.401C393.944 274.974 406.535 293.146 421.281 310.046C422.21 311.111 423.161 312.182 424.103 313.231C464.898 358.387 520.858 387.554 585.934 397.578C646.193 406.86 715.256 399.216 791.211 374.858C797.515 372.834 803.995 370.647 810.472 368.357C863.794 349.517 915.968 323.468 966.422 298.276C979.543 291.724 993.11 284.952 1006.53 278.389C1039.08 262.521 1076.96 244.321 1114.56 229.125C1153.89 213.231 1189.9 201.842 1224.67 194.306C1246.55 189.521 1265.8 187.039 1283.51 186.719C1305.84 186.314 1326.37 189.432 1344.53 195.984C1360.29 201.692 1376.15 210.21 1393.02 222.026C1407.92 232.46 1421.72 244.086 1435.06 255.327C1442.79 261.841 1450.1 267.994 1457.48 273.817C1527.86 329.371 1600.45 389.208 1679.4 456.751L1679.2 456.883Z" fill="#D24726"/>
<path d="M1676.28 454.978C1598.11 386.708 1526.85 326.19 1458.42 269.967C1451.18 264.014 1444 257.675 1436.4 250.965C1409.94 227.601 1382.58 203.442 1347.6 190.951C1314.91 179.315 1275.7 179.963 1227.72 192.931C1160.63 210.962 1100.67 241.12 1037.18 273.052C1029.27 277.029 1021.1 281.139 1012.96 285.199C1009.78 286.792 1006.59 288.39 1003.41 289.985C942.912 320.294 880.359 351.635 814.739 372.17C808.106 374.247 801.439 376.221 794.923 378.036C758.583 388.145 723.23 394.58 689.847 397.159C652.466 400.047 617.173 398.115 584.956 391.417C553.337 384.843 523.565 373.525 496.467 357.776C470.201 342.511 446.491 323.122 425.994 300.144C425.059 299.093 424.117 298.018 423.191 296.951C408.997 280.572 396.444 263.129 384.301 246.261C379.385 239.43 374.298 232.365 369.19 225.489C349.838 199.41 332.102 178.958 313.366 161.128C310.877 158.76 308.307 156.382 305.724 154.06C258.736 111.822 197.427 77.9012 128.419 55.9672C45.6352 29.7264 -38.8059 21.9311 -109.345 34.0229C-181.752 46.5379 -255.443 91.8963 -249.389 151.31L-249.664 151.327C-251.123 136.996 -248.062 122.924 -240.56 109.501C-233.638 97.1161 -223.063 85.4616 -209.128 74.8641C-183.39 55.2889 -147.045 40.332 -109.408 33.8265C-72.2218 27.4526 -31.5126 26.5253 11.5928 31.0729C50.3563 35.1588 89.6997 43.4724 128.529 55.7809C197.576 77.7291 258.923 111.668 305.93 153.928C308.513 156.251 311.088 158.632 313.578 161.001C332.322 178.841 350.069 199.299 369.426 225.388C374.537 232.264 379.621 239.33 384.54 246.162C396.678 263.026 409.231 280.465 423.419 296.837C424.345 297.904 425.285 298.977 426.219 300.028C467.898 346.751 522.812 378.283 585.027 391.217C646.442 403.985 717.028 399.484 794.824 377.841C801.334 376.027 807.998 374.055 814.629 371.98C880.227 351.453 942.769 320.118 1003.25 289.813C1006.44 288.216 1009.62 286.62 1012.81 285.027C1020.94 280.967 1029.11 276.857 1037.02 272.882C1100.52 240.944 1160.51 210.777 1227.62 192.739C1249.3 186.879 1268.54 183.593 1286.45 182.688C1308.87 181.556 1329.48 184.275 1347.72 190.767C1363.39 196.361 1379.05 204.918 1395.61 216.926C1410.21 227.522 1423.63 239.373 1436.61 250.833C1444.21 257.541 1451.39 263.878 1458.63 269.829C1527.06 326.054 1598.32 386.574 1676.49 454.846L1676.28 454.978Z" fill="#D24726"/>
<path d="M1673.37 453.066C1602.02 389.449 1530.09 326.499 1459.57 265.97C1452.39 259.843 1445.28 253.26 1437.74 246.293C1413.24 223.628 1385.48 197.94 1350.78 185.729C1317.71 174.113 1278.43 175.953 1230.69 191.353C1173.92 209.605 1123.68 236.441 1070.49 264.852C1053.84 273.749 1036.61 282.951 1019.24 291.828C988.917 307.355 956.114 323.786 921.728 338.751C884.902 354.779 851.258 366.893 818.873 375.79C812.069 377.659 805.221 379.418 798.513 381.016C761.404 389.85 725.088 394.877 690.576 395.958C652.37 397.153 616.52 393.484 584.016 385.045C523.994 369.268 471.534 336.259 428.096 286.932C427.17 285.879 426.236 284.802 425.315 283.735C411.842 268.079 399.509 251.563 387.583 235.59C381.968 228.072 376.164 220.297 370.325 212.731C350.237 186.658 332.144 166.386 313.386 148.935C310.861 146.586 308.258 144.232 305.645 141.933C258.085 100.102 196.326 66.6978 127.048 45.3246C43.7285 19.671 -40.9406 12.5743 -111.364 25.3403C-184.211 38.6206 -256.055 83.3777 -252.42 143.225L-252.695 143.233C-253.566 128.898 -250.109 114.842 -242.422 101.455C-235.3 89.0531 -224.665 77.3865 -210.809 66.7808C-197.756 56.7887 -182.285 48.0519 -164.827 40.8114C-147.877 33.7835 -129.913 28.5111 -111.433 25.1419C-74.2878 18.4096 -33.5347 17.1218 9.69711 21.3191C48.5541 25.0913 88.0706 33.1032 127.153 45.1363C196.472 66.5217 258.266 99.9462 305.854 141.798C308.467 144.098 311.075 146.455 313.6 148.803C332.367 166.265 350.468 186.545 370.564 212.625C376.404 220.194 382.207 227.969 387.822 235.489C399.748 251.46 412.078 267.974 425.546 283.623C426.464 284.692 427.401 285.768 428.325 286.82C471.73 336.109 524.142 369.092 584.107 384.853C645.874 400.889 719.985 399.496 798.427 380.821C805.13 379.224 811.978 377.466 818.777 375.6C891.184 355.71 957.433 323.227 1019.08 291.66C1036.46 282.783 1053.68 273.583 1070.33 264.686C1123.53 236.268 1173.78 209.426 1230.58 191.167C1278.39 175.743 1317.75 173.902 1350.9 185.544C1366.44 191.013 1381.86 199.586 1398.06 211.749C1412.35 222.474 1425.37 234.519 1437.96 246.165C1445.49 253.133 1452.6 259.713 1459.78 265.836C1530.3 326.368 1602.23 389.317 1673.58 452.937L1673.37 453.066Z" fill="#D24726"/>
<path d="M1670.46 451.158C1600.2 387.189 1529.63 323.539 1460.72 261.976C1453.76 255.782 1446.86 249.085 1439.55 241.994C1415.66 218.8 1388.57 192.511 1353.97 180.506C1320.5 168.911 1281.15 171.944 1233.66 189.776C1183.9 208.432 1138.18 234.774 1093.97 260.251C1071.8 273.025 1048.88 286.235 1025.52 298.458C988.653 317.77 957.634 332.502 927.897 344.823C891.231 360.014 856.922 371.329 823.014 379.411C816.053 381.072 809.018 382.615 802.107 383.998C766.097 391.2 730.735 394.844 696.907 394.846C695.028 394.846 693.159 394.834 691.29 394.812C652.181 394.342 615.775 388.912 583.084 378.674C567.305 373.706 551.853 367.399 537.16 359.927C523.348 352.905 509.776 344.634 496.819 335.345C473.507 318.633 451.716 298.474 430.204 273.722C429.281 272.657 428.36 271.59 427.445 270.519C414.964 255.914 403.155 240.647 391.737 225.883C385.145 217.361 378.33 208.547 371.465 199.968C350.33 173.537 332.427 154.035 313.408 136.737C310.849 134.411 308.214 132.078 305.568 129.803C257.431 88.3864 195.224 55.4964 125.677 34.684C41.8241 9.61969 -43.0759 3.21947 -113.384 16.6597C-184.865 30.3632 -256.616 75.4604 -255.448 135.14L-255.723 135.142C-256.267 107.344 -241.315 80.911 -212.486 58.7016C-199.455 48.6629 -184.066 39.8633 -166.742 32.5419C-149.886 25.4188 -131.958 20.0087 -113.453 16.4613C-76.3517 9.36862 -35.5546 7.7225 7.80362 11.5695C46.754 15.0258 86.4464 22.738 125.779 34.4937C195.37 55.3203 257.612 88.2305 305.779 129.671C308.426 131.949 311.067 134.283 313.625 136.61C332.652 153.917 350.564 173.426 371.704 199.867C378.569 208.448 385.387 217.262 391.976 225.784C403.394 240.546 415.2 255.811 427.679 270.411C428.594 271.482 429.512 272.549 430.435 273.612C476.145 326.211 526.113 360.517 583.192 378.488C662.249 403.247 745.836 395.045 802.036 383.803C808.941 382.42 815.971 380.879 822.929 379.219C900.915 360.628 972.077 326.205 1025.36 298.294C1048.72 286.075 1071.64 272.865 1093.8 260.093C1138.02 234.612 1183.75 208.262 1233.53 189.597C1254.78 181.618 1274.02 176.718 1292.33 174.62C1314.91 172.033 1335.69 173.952 1354.08 180.326C1369.58 185.702 1384.86 194.343 1400.79 206.743C1414.83 217.669 1427.51 229.973 1439.77 241.874C1447.08 248.963 1453.98 255.659 1460.93 261.849C1529.85 323.411 1600.41 387.061 1670.67 451.031L1670.46 451.158Z" fill="#D24726"/>
<path d="M1667.54 449.251L1461.86 257.985C1455.15 251.739 1448.47 244.942 1441.41 237.748C1418.11 214.006 1391.69 187.097 1357.15 175.29C1323.75 163.875 1283.2 168.22 1236.63 188.206C1191.85 207.419 1151.01 232.969 1111.52 257.68C1085.77 273.786 1059.15 290.44 1031.8 305.097C949.596 349.152 877.752 375.172 805.707 386.986C775.82 391.886 746.336 394.352 717.743 394.352C709.076 394.352 700.496 394.125 692.008 393.672C651.975 391.534 615.014 384.346 582.156 372.311C551.702 361.154 523.843 345.406 496.995 324.162C475.555 307.199 455.002 286.976 432.317 260.518C420.344 246.556 408.75 232.048 397.539 218.019C372.163 186.271 345.925 153.441 313.441 124.548C263.614 80.2326 198.211 45.4798 124.303 24.0459C39.9198 -0.427272 -45.211 -6.13301 -115.404 7.98151C-183.362 21.6465 -257.122 64.7372 -258.479 127.059L-258.754 127.055C-258.147 99.1984 -242.727 72.7694 -214.165 50.6247C-188.339 30.602 -153.291 15.388 -115.475 7.78511C-78.4153 0.334034 -37.5743 -1.67249 5.90759 1.82425C44.9514 4.96261 84.8197 12.3772 124.405 23.8576C160.975 34.4632 195.708 48.4238 227.64 65.3527C259.838 82.4234 288.777 102.294 313.65 124.415C346.148 153.318 372.394 186.155 397.775 217.911C408.987 231.939 420.581 246.444 432.551 260.405C465.648 299.009 512.579 346.592 582.279 372.124C662.214 401.404 747.867 396.257 805.646 386.784C877.656 374.977 949.467 348.967 1031.64 304.929C1058.98 290.278 1085.6 273.624 1111.34 257.522C1150.84 232.807 1191.69 207.251 1236.49 188.028C1283.14 168.007 1323.78 163.658 1357.27 175.104C1372.73 180.391 1387.87 189.107 1403.55 201.756C1417.35 212.89 1429.7 225.466 1441.63 237.626C1448.7 244.82 1455.37 251.613 1462.08 257.858L1667.76 449.123L1667.54 449.251Z" fill="#D24726"/>
<path d="M1665.89 434.547C1613.51 381.292 1568.57 338.078 1524.47 298.553C1503.06 279.352 1481.19 260.453 1459.48 242.381C1452.91 236.914 1446.4 231.099 1439.51 224.941C1422.2 209.466 1404.3 193.465 1383.69 181.59C1372.63 175.201 1361.99 170.628 1351.14 167.607C1317.85 158.242 1278.8 164.434 1235.07 186.012C1212.43 197.162 1191.82 209.851 1174.64 220.793C1156.46 232.376 1138.52 245.15 1121.18 257.503C1096.24 275.26 1070.46 293.621 1042.75 309.39C1025.88 319.013 1008.79 327.612 991.932 334.95C958.214 349.629 922.022 361.725 884.363 370.901C861.096 376.508 837.716 380.746 814.877 383.495C795.193 385.856 775.473 387.219 756.262 387.545C727.509 388.035 699.496 386.166 673 381.985C644.827 377.538 618.166 370.442 593.758 360.889C571.994 352.371 551.436 341.646 530.911 328.098C492.664 302.874 462.158 273.707 439.855 251.115C428.899 239.965 418.201 228.594 407.854 217.598C378.063 185.929 349.924 156.017 314.71 129.373C285.991 107.785 253.224 89.1558 217.31 73.9985C189.711 62.3501 159.695 52.8237 128.095 45.6824C120.569 43.9836 112.899 42.4003 105.306 40.9809C72.6157 34.8804 35.8142 30.9078 -4.07326 29.1726C-44.2877 27.3827 -79.0804 28.9317 -110.433 33.9125C-128.157 36.7067 -145.33 41.0903 -161.48 46.9398C-218.496 67.5922 -255.107 102.262 -259.416 139.683L-259.76 139.661C-258.611 129.685 -255.239 119.859 -249.74 110.452C-244.516 101.517 -237.341 92.8995 -228.416 84.839C-211.551 69.6129 -188.457 56.4277 -161.631 46.711C-145.456 40.8514 -128.256 36.4617 -110.504 33.6635C-79.1189 28.6786 -44.2987 27.1276 -4.05128 28.9195C35.8582 30.6547 72.6789 34.6313 105.391 40.7359C112.992 42.1573 120.665 43.7407 128.197 45.4415C159.821 52.5868 189.863 62.1213 217.483 73.7798C253.421 88.9472 286.216 107.593 314.95 129.195C350.185 155.855 378.33 185.775 408.132 217.452C418.476 228.448 429.174 239.817 440.127 250.965C462.419 273.547 492.911 302.7 531.136 327.908C551.639 341.441 572.175 352.156 593.914 360.664C641.683 379.359 696.3 388.318 756.251 387.292C775.446 386.966 795.152 385.603 814.819 383.244C837.642 380.495 861.005 376.261 884.253 370.658C921.89 361.488 958.06 349.401 991.756 334.729C1008.6 327.398 1025.68 318.803 1042.53 309.187C1070.23 293.426 1096.01 275.07 1120.93 257.319C1138.29 244.964 1156.22 232.186 1174.42 220.598C1191.6 209.65 1212.22 196.957 1234.87 185.799C1254.35 176.192 1273.2 169.554 1290.92 166.07C1312.68 161.79 1332.98 162.227 1351.26 167.37C1362.14 170.401 1372.82 174.987 1383.91 181.389C1404.54 193.282 1422.45 209.294 1439.78 224.779C1446.67 230.935 1453.17 236.75 1459.73 242.212C1481.46 260.287 1503.32 279.188 1524.74 298.393C1568.84 337.922 1613.79 381.141 1666.17 434.399L1665.89 434.547Z" fill="#D24726"/>
<path d="M1664.23 419.841C1615.67 365.685 1570.09 320.367 1524.9 281.299C1502.85 262.216 1480.04 243.872 1457.09 226.777C1451 222.242 1444.99 217.528 1438.63 212.539C1419.57 197.598 1399.86 182.15 1377.79 171.461C1366.64 166.041 1355.96 162.267 1345.13 159.922C1303.66 150.94 1261.54 167.956 1233.5 183.812C1213.64 195.013 1195.5 207.678 1177.12 220.751C1161.04 232.195 1145.9 244.506 1129.88 257.537C1106.1 276.881 1081.51 296.884 1053.69 313.679C1037.18 323.7 1019.94 332.364 1002.47 339.43C969.917 352.595 934.273 362.818 893.498 370.686C870.678 375.088 847.309 378.224 824.039 380.004C804.404 381.488 784.805 382.019 765.784 381.575C737.485 380.923 709.823 377.991 683.563 372.863C655.984 367.475 629.669 359.603 605.352 349.465C584.046 340.584 563.475 329.565 542.461 315.781C504.296 290.781 471.603 263.067 447.387 241.714C438.423 233.809 429.602 225.856 421.07 218.162C387.09 187.523 354.996 158.582 315.98 134.199C286.821 115.977 254.084 100.568 218.684 88.4037C191.899 79.1992 163.509 72.3029 131.896 67.32C124.6 66.172 117.177 65.1374 109.837 64.2444C77.5977 60.3428 43.1898 58.8667 1.56009 57.3401C-28.4482 56.1839 -67.7312 55.4226 -105.47 59.8406C-123.343 61.8937 -140.62 65.4593 -156.825 70.4341C-213.879 87.9542 -252.582 118.56 -260.359 152.309L-260.766 152.258C-258.705 143.309 -254.528 134.532 -248.358 126.167C-242.478 118.198 -234.75 110.557 -225.393 103.45C-207.611 89.9486 -183.956 78.4339 -156.984 70.1527C-140.749 65.1677 -123.439 61.5961 -105.536 59.5389C-67.7614 55.1149 -28.4483 55.8782 1.57932 57.0343C43.2228 58.561 77.6417 60.037 109.903 63.9407C117.249 64.8357 124.677 65.8703 131.981 67.0183C163.624 72.0073 192.042 78.9097 218.857 88.1243C254.292 100.301 287.057 115.722 316.247 133.963C355.29 158.363 387.398 187.313 421.388 217.963C429.918 225.655 438.739 233.609 447.703 241.511C471.913 262.856 504.593 290.561 542.735 315.548C563.725 329.318 584.274 340.325 605.555 349.195C653.371 369.129 707.287 379.919 765.797 381.267C784.803 381.709 804.382 381.18 823.998 379.696C847.246 377.918 870.596 374.786 893.393 370.386C934.135 362.526 969.75 352.311 1002.27 339.159C1019.73 332.1 1036.94 323.449 1053.43 313.438C1081.23 296.657 1105.81 276.663 1129.58 257.328C1145.61 244.291 1160.74 231.979 1176.84 220.529C1195.22 207.447 1213.37 194.778 1233.26 183.565C1251.43 173.285 1269.36 165.891 1286.54 161.582C1307.38 156.358 1327.13 155.7 1345.25 159.624C1356.12 161.979 1366.84 165.765 1378.02 171.202C1400.13 181.911 1419.86 197.374 1438.93 212.326C1445.29 217.313 1451.31 222.025 1457.39 226.558C1480.35 243.659 1503.16 262.01 1525.21 281.099C1570.42 320.177 1616.01 365.503 1664.57 419.671L1664.23 419.841Z" fill="#D24726"/>
<path d="M1662.57 405.13C1617.12 349.339 1572.23 303.188 1525.32 264.044C1502.65 245.078 1478.89 227.291 1454.71 211.172C1449.55 207.726 1444.22 204.069 1439.08 200.534C1417.84 185.927 1395.87 170.825 1371.88 161.33C1360.62 156.844 1349.91 153.867 1339.13 152.233C1297.75 145.959 1258 164.744 1231.95 181.606C1214.28 192.989 1198.14 205.891 1182.53 218.37L1179.6 220.706C1165.42 232.027 1152.13 244.442 1138.05 257.589C1115.63 278.523 1092.44 300.167 1064.63 317.965C1048.45 328.397 1031.08 337.125 1013 343.908C981.484 355.735 946.408 364.174 902.624 370.467C879.983 373.721 856.625 375.753 833.195 376.507C813.61 377.112 794.132 376.808 775.297 375.6C718.276 371.957 664.997 359.318 616.94 338.036C596.165 328.836 575.58 317.528 554.01 303.46C517.508 279.703 485.043 255.285 454.922 232.31C450.883 229.23 446.887 226.171 442.922 223.136C401.781 191.653 362.924 161.916 317.258 139.028C287.444 124.085 254.74 111.9 220.058 102.809C194.594 96.1356 166.999 91.6042 135.699 88.9559C128.645 88.3626 121.47 87.8746 114.372 87.5061C96.515 86.595 77.5757 86.4472 57.5234 86.2913C41.4172 86.1658 24.7643 86.0362 7.19067 85.5077C-26.7501 84.4002 -65.2168 83.1469 -100.512 85.7709C-118.723 87.1255 -136.105 89.871 -152.175 93.9327C-209.207 108.349 -250.004 134.895 -261.307 164.945L-261.771 164.85C-258.793 156.927 -253.813 149.198 -246.973 141.879C-240.433 134.879 -232.156 128.21 -222.373 122.056C-203.662 110.289 -179.441 100.448 -152.334 93.5966C-136.228 89.5248 -118.811 86.7732 -100.565 85.4166C-65.2333 82.7905 -26.7473 84.0459 7.20715 85.1534C24.7697 85.6798 41.4227 85.8114 57.5234 85.937C77.5839 86.0929 96.5287 86.2407 114.402 87.1538C121.505 87.5244 128.689 88.0123 135.748 88.6056C167.087 91.256 194.715 95.7934 220.214 102.477C254.938 111.578 287.678 123.777 317.524 138.736C363.232 161.644 402.108 191.396 443.265 222.893C447.231 225.928 451.229 228.985 455.266 232.067C485.381 255.038 517.835 279.45 554.326 303.199C575.874 317.25 596.437 328.548 617.187 337.737C665.181 358.992 718.391 371.613 775.338 375.251C794.151 376.458 813.61 376.762 833.173 376.156C856.578 375.403 879.914 373.372 902.53 370.123C946.271 363.836 981.305 355.407 1012.78 343.596C1030.82 336.828 1048.16 328.115 1064.31 317.702C1092.09 299.927 1115.26 278.294 1137.66 257.372C1151.75 244.22 1165.06 231.798 1179.24 220.469L1182.17 218.133C1197.79 205.648 1213.94 192.738 1231.62 181.343C1257.76 164.426 1297.65 145.586 1339.22 151.889C1350.05 153.531 1360.81 156.518 1372.11 161.023C1396.15 170.537 1418.14 185.656 1439.4 200.279C1444.55 203.814 1449.87 207.47 1455.03 210.915C1479.22 227.042 1502.99 244.839 1525.68 263.815C1572.6 302.976 1617.51 349.142 1662.97 404.952L1662.57 405.13Z" fill="#D24726"/>
<path d="M1660.91 390.417C1619.18 333.783 1573.71 285.458 1525.76 246.79C1502.44 227.943 1477.74 210.711 1452.34 195.57C1448.67 193.383 1444.91 191.113 1441.28 188.918C1417.27 174.419 1392.44 159.424 1365.99 151.203C1354.64 147.638 1343.9 145.461 1333.14 144.546C1291.88 141.039 1254.49 161.564 1230.39 179.4C1215.43 190.419 1201.92 202.672 1188.86 214.523C1186.6 216.574 1184.35 218.621 1182.08 220.66C1169.66 231.861 1158.04 244.374 1145.75 257.62C1124.84 280.139 1103.22 303.424 1075.58 322.254C1059.34 333.311 1042.32 341.86 1023.53 348.392C984.243 362.052 944.977 367.108 911.75 370.255C889.277 372.381 865.93 373.312 842.352 373.016C822.827 372.743 803.468 371.603 784.814 369.631C729.505 363.798 676.924 349.325 628.534 326.613C608.4 317.166 587.803 305.564 565.564 291.146C543.099 276.616 522.164 262.635 501.917 249.114C488.157 239.924 475.159 231.244 462.466 222.916C414.486 191.435 370.537 163.757 318.547 143.862C288.093 132.209 255.422 123.244 221.44 117.216C197.085 112.895 171.05 110.791 139.511 110.591C132.707 110.555 125.776 110.613 118.915 110.767C108.491 111.016 97.7081 111.537 86.2956 112.089C64.3939 113.148 39.5656 114.349 12.8219 113.677C2.6377 113.42 -7.75255 113.057 -17.802 112.705C-43.6499 111.8 -70.3771 110.864 -95.5572 111.701C-114.049 112.316 -131.537 114.244 -147.53 117.431C-204.467 128.779 -247.355 151.268 -262.26 177.588L-262.769 177.432C-258.866 170.54 -253.085 163.862 -245.585 157.583C-238.383 151.554 -229.556 145.858 -219.355 140.656C-199.699 130.634 -174.914 122.468 -147.679 117.04C-131.647 113.845 -114.12 111.911 -95.5874 111.296C-70.3799 110.457 -43.6416 111.395 -17.7801 112.3C-7.73331 112.652 2.65695 113.015 12.8383 113.272C39.5573 113.944 64.3664 112.745 86.2571 111.686C97.6751 111.134 108.461 110.613 118.895 110.364C125.765 110.21 132.701 110.152 139.514 110.188C171.097 110.387 197.17 112.496 221.567 116.823C255.59 122.859 288.305 131.835 318.797 143.503C342.282 152.489 366.079 163.874 391.551 178.307C414.354 191.227 436.536 205.363 462.829 222.614C475.522 230.944 488.52 239.624 502.282 248.814C522.527 262.334 543.461 276.315 565.921 290.842C588.138 305.246 608.713 316.836 628.823 326.273C677.147 348.954 729.653 363.407 784.885 369.232C803.517 371.202 822.852 372.34 842.355 372.614C865.905 372.909 889.228 371.98 911.674 369.854C944.859 366.713 984.073 361.664 1023.3 348.027C1042.03 341.513 1059.01 332.987 1075.2 321.958C1102.8 303.161 1124.4 279.894 1145.29 257.393C1157.59 244.139 1169.21 231.62 1181.65 220.407C1183.91 218.368 1186.17 216.321 1188.43 214.272C1201.5 202.413 1215.01 190.151 1230 179.119C1245.67 167.515 1261.76 158.588 1277.8 152.586C1296.8 145.477 1315.44 142.639 1333.19 144.149C1344 145.068 1354.8 147.255 1366.2 150.835C1392.71 159.078 1417.57 174.091 1441.61 188.609C1445.25 190.803 1449 193.073 1452.67 195.258C1478.09 210.411 1502.81 227.66 1526.15 246.52C1551.61 267.053 1576.55 290.447 1600.26 316.052C1621.23 338.683 1641.79 363.64 1661.38 390.227L1660.91 390.417Z" fill="#D24726"/>
<path d="M1659.25 375.708C1620.63 317.45 1575.86 268.273 1526.19 229.542C1502.24 210.815 1476.59 194.139 1449.97 179.974C1448.7 179.3 1447.43 178.626 1446.16 177.949C1418.48 163.201 1389.85 147.951 1360.11 141.085C1348.59 138.424 1337.81 137.045 1327.16 136.867C1286.06 136.183 1251.01 158.423 1228.85 177.198C1215.81 188.182 1204.23 200.222 1193.03 211.864C1190.27 214.743 1187.4 217.719 1184.58 220.619C1173.81 231.662 1163.81 244.217 1153.22 257.512C1133.95 281.693 1114.03 306.697 1086.53 326.548C1070.62 338.032 1053.46 346.645 1034.07 352.881C995.878 365.166 957.095 368.391 920.877 370.047C898.543 371.068 875.204 370.894 851.508 369.531C832.047 368.377 812.811 366.403 794.33 363.665C740.903 355.769 689.021 339.461 640.131 315.195C620.551 305.478 600.529 293.925 577.124 278.836C532.642 250.239 499.611 230.097 470.026 213.528C411.183 180.575 366.272 161.188 319.86 148.704C288.789 140.346 256.15 134.602 222.847 131.629C199.742 129.568 175.221 129.752 143.344 132.233C136.812 132.747 130.129 133.352 123.479 134.035C117.197 134.689 110.816 135.438 104.059 136.229C79.1095 139.155 50.8296 142.472 18.4635 141.852C1.40381 141.526 -16.0214 140.633 -32.8722 139.771C-52.0232 138.791 -71.8254 137.776 -90.5998 137.639C-109.424 137.501 -127.019 138.611 -142.884 140.939C-199.63 149.263 -244.615 167.698 -263.217 190.252L-263.744 190.015C-258.913 184.155 -252.329 178.528 -244.175 173.29C-236.305 168.233 -226.934 163.513 -216.322 159.259C-195.706 150.994 -170.353 144.503 -143.005 140.492C-127.096 138.159 -109.462 137.045 -90.5943 137.183C-71.8034 137.321 -51.9902 138.335 -32.831 139.317C-15.9857 140.18 1.43124 141.073 18.4772 141.399C50.7856 142.016 79.0353 138.704 103.957 135.782C110.717 134.988 117.104 134.241 123.388 133.585C130.047 132.903 136.735 132.297 143.273 131.781C175.199 129.299 199.761 129.112 222.916 131.18C256.266 134.156 288.951 139.908 320.067 148.279C366.541 160.779 411.499 180.187 470.394 213.168C499.99 229.742 533.032 249.891 577.526 278.496C600.914 293.573 620.914 305.114 640.472 314.82C689.296 339.052 741.101 355.337 794.448 363.222C812.904 365.955 832.118 367.925 851.552 369.079C875.221 370.44 898.53 370.614 920.835 369.596C956.999 367.941 995.716 364.724 1033.82 352.468C1053.14 346.256 1070.24 337.671 1086.09 326.228C1113.53 306.42 1133.44 281.442 1152.68 257.287C1163.28 243.984 1173.29 231.419 1184.07 220.36C1186.9 217.462 1189.76 214.486 1192.53 211.607C1203.73 199.954 1215.32 187.907 1228.38 176.905C1242.84 164.651 1258.01 154.958 1273.45 148.094C1291.53 140.054 1309.61 136.128 1327.17 136.418C1337.89 136.596 1348.72 137.983 1360.3 140.656C1390.13 147.546 1418.8 162.816 1446.52 177.587C1447.79 178.263 1449.06 178.939 1450.33 179.612C1476.98 193.793 1502.66 210.489 1526.64 229.236C1576.35 268.002 1621.16 317.217 1659.8 375.516L1659.25 375.708Z" fill="#D24726"/>
<path d="M934.55 369.838C933.009 369.838 931.489 369.836 929.994 369.83C907.776 369.761 884.446 368.486 860.656 366.036C841.266 364.001 822.151 361.193 803.841 357.692C777.68 352.699 751.425 345.523 725.8 336.365C701.054 327.521 676.132 316.555 651.724 303.769C627.809 291.242 605.47 277.283 588.68 266.521C549.394 241.41 512.015 220.422 477.583 204.137C421.814 177.763 372.116 161.684 321.177 153.538C290.445 148.624 257.475 146.033 225.73 146.033C225.238 146.033 224.749 146.033 224.257 146.035C196.985 146.104 171.094 149.837 147.18 153.862C140.956 154.917 134.517 156.069 128.043 157.29C124.495 157.967 120.942 158.663 117.183 159.4C90.6674 164.606 60.6123 170.504 24.0994 170.02C1.86243 169.724 -20.8499 168.028 -42.8148 166.385C-56.9974 165.324 -71.6608 164.229 -85.6482 163.567C-104.876 162.658 -122.571 162.949 -138.245 164.438C-194.689 169.791 -241.771 184.175 -264.192 202.916L-264.709 202.582C-253.209 192.97 -235.91 184.649 -213.294 177.846C-191.694 171.35 -165.772 166.539 -138.333 163.938C-122.617 162.447 -104.876 162.152 -85.6042 163.065C-71.6031 163.727 -56.9314 164.824 -42.7434 165.885C-20.7922 167.527 1.90637 169.224 24.1131 169.518C60.5326 170.002 90.5354 164.112 117.007 158.916C120.769 158.177 124.322 157.481 127.873 156.804C134.353 155.583 140.797 154.429 147.026 153.374C170.981 149.343 196.917 145.603 224.254 145.533C256.505 145.45 290.066 148.049 321.322 153.048C347.612 157.254 373.1 163.444 399.237 171.972C424.409 180.186 450.157 190.569 477.951 203.716C512.411 220.013 549.817 241.018 589.127 266.145C605.904 276.9 628.226 290.849 652.117 303.362C701.645 329.307 752.75 347.422 804.011 357.208C822.297 360.705 841.387 363.509 860.75 365.542C884.509 367.988 907.807 369.263 929.994 369.33C964.713 369.435 1005.03 368.573 1044.34 356.9C1064.25 350.992 1081.46 342.352 1096.98 330.489C1124.23 309.655 1142.3 282.914 1159.77 257.052C1168.76 243.749 1177.25 231.183 1186.48 220.307C1189.44 216.822 1192.42 213.232 1195.31 209.76C1205.06 198.028 1215.14 185.9 1226.75 174.689C1240.02 161.791 1254.27 151.329 1269.08 143.595C1286.26 134.627 1303.77 129.61 1321.13 128.683C1331.84 128.11 1342.72 128.695 1354.37 130.473C1385.54 135.223 1416.43 149.023 1447.97 163.96C1475.46 176.983 1502.83 193.576 1527.11 211.946C1554.07 232.293 1579.41 256.163 1602.42 282.891C1622.91 306.705 1641.68 332.917 1658.21 360.802L1657.58 361.004C1622.09 301.12 1578.03 251.089 1526.62 212.301C1502.37 193.956 1475.05 177.388 1447.59 164.387C1416.11 149.477 1385.28 135.702 1354.23 130.969C1342.64 129.201 1331.83 128.62 1321.18 129.189C1289.28 130.896 1255.94 147.162 1227.3 174.997C1215.71 186.187 1205.63 198.306 1195.89 210.025C1193.01 213.499 1190.02 217.091 1187.06 220.576C1177.85 231.433 1169.37 243.988 1160.39 257.278C1151.81 269.968 1142.95 283.09 1132.78 295.704C1121.24 310.005 1109.7 321.497 1097.48 330.842C1081.89 342.757 1064.6 351.435 1044.6 357.372C1026.97 362.608 1008.02 366.068 986.661 367.955C968.576 369.545 950.412 369.838 934.55 369.838Z" fill="#D24726"/>
<path d="M978.617 370.852C964.605 370.852 951.145 370.237 939.104 369.613C916.963 368.467 893.643 366.088 869.796 362.541C850.488 359.627 831.494 355.986 813.34 351.716C763.632 340.048 714.555 320.624 663.307 292.34C640.957 280.008 619.888 266.738 600.229 254.204C561.416 229.533 522.696 209.528 485.139 194.744C429.904 173 378.225 161.441 322.501 158.367C290.75 156.616 257.268 157.33 225.672 160.432C199.225 163.028 174.292 169.293 151.016 175.484C145.193 177.041 138.999 178.742 132.61 180.538C131.013 180.99 129.403 181.449 127.771 181.913C100.964 189.55 70.6312 198.192 31.7028 198.192C31.046 198.192 30.392 198.19 29.7297 198.184C3.3927 197.987 -23.4966 195.217 -49.5039 192.537C-59.8144 191.474 -70.4767 190.376 -80.7076 189.487C-100.691 187.754 -117.998 187.242 -133.621 187.926C-190.441 190.417 -238.403 200.492 -265.201 215.574L-265.66 215.131C-252.412 207.676 -233.256 201.203 -210.268 196.412C-187.658 191.7 -161.17 188.574 -133.667 187.369C-118.001 186.683 -100.65 187.195 -80.6224 188.933C-70.3806 189.821 -59.7155 190.921 -49.4022 191.982C-23.4197 194.659 3.44492 197.426 29.7325 197.623C69.4715 197.922 100.299 189.137 127.493 181.388C129.123 180.925 130.736 180.465 132.332 180.012C138.727 178.214 144.924 176.513 150.752 174.956C174.067 168.752 199.046 162.479 225.564 159.875C257.211 156.769 290.747 156.053 322.55 157.806C350.165 159.329 376.494 162.925 403.04 168.796C430.38 174.844 457.349 183.168 485.488 194.248C523.092 209.053 561.861 229.081 600.715 253.777C620.366 266.306 641.422 279.568 663.752 291.889C714.931 320.134 763.934 339.529 813.563 351.18C831.689 355.442 850.658 359.078 869.939 361.988C893.753 365.531 917.04 367.908 939.147 369.05C976.35 370.974 1015.93 371.962 1054.86 361.318C1075.35 355.715 1092.68 347.021 1107.86 334.737C1134.89 312.855 1151.72 283.008 1166.57 256.675C1174.04 243.425 1181.09 230.91 1188.88 220.241C1191.69 216.392 1194.52 212.414 1197.25 208.567C1205.8 196.529 1214.64 184.083 1225.11 172.459C1237.22 158.918 1250.54 147.686 1264.71 139.077C1280.98 129.19 1297.92 123.084 1315.07 120.931C1325.79 119.585 1336.71 119.37 1348.44 120.269C1381.21 122.786 1414.5 135.222 1445.6 148.288C1474.31 160.351 1502.66 176.379 1527.57 194.638C1555.29 214.89 1580.83 238.999 1603.48 266.29C1623.74 290.696 1641.61 317.536 1656.62 346.069L1655.92 346.27C1624.02 285.62 1579.45 233.323 1527.04 195.031C1502.17 176.806 1473.88 160.809 1445.22 148.77C1414.2 135.734 1381 123.329 1348.36 120.822C1336.7 119.927 1325.86 120.142 1315.21 121.478C1283.54 125.453 1251.77 143.665 1225.75 172.763C1215.3 184.363 1206.47 196.797 1197.92 208.822C1195.19 212.671 1192.36 216.649 1189.55 220.502C1181.78 231.147 1174.73 243.649 1167.27 256.885C1152.4 283.26 1135.54 313.155 1108.42 335.109C1093.16 347.46 1075.73 356.203 1055.12 361.838C1037.25 366.726 1017.96 369.556 996.161 370.486C990.266 370.749 984.396 370.852 978.617 370.852Z" fill="#D24726"/>
<path d="M1006.28 373.044C1006.08 373.044 1005.88 373.044 1005.68 373.044C985.875 373.007 966.433 371.221 948.214 369.395C926.106 367.18 902.8 363.695 878.939 359.042C859.719 355.254 840.846 350.777 822.846 345.74C775.124 332.403 728.114 311.805 674.899 280.913C655.734 269.792 636.874 257.815 618.633 246.236C616.352 244.786 614.069 243.338 611.785 241.89C572.771 217.225 532.708 198.202 492.711 185.353C437.94 167.76 382.702 160.512 323.84 163.195C291.564 164.667 258.112 168.69 227.101 174.829C202.633 179.674 180.83 187.447 154.867 197.105C149.604 199.071 143.985 201.193 137.186 203.785L136.807 203.93C123.69 208.964 108.824 214.668 92.1487 219.005C72.9977 223.986 54.4184 226.383 35.3664 226.355C5.65759 226.3 -24.6613 222.226 -53.9799 218.284C-61.1632 217.318 -68.5939 216.32 -75.7662 215.417C-96.3351 212.831 -113.747 211.525 -128.995 211.426C-185.143 211.062 -235.162 217.193 -266.226 228.244L-266.583 227.697C-251.367 222.283 -230.842 217.889 -207.229 214.99C-183.571 212.084 -156.514 210.643 -128.987 210.821C-113.694 210.92 -96.2389 212.228 -75.626 214.82C-68.4482 215.723 -61.0176 216.721 -53.8315 217.687C-24.5486 221.623 5.73178 225.692 35.3691 225.747C35.501 225.747 35.6357 225.747 35.7676 225.747C78.1613 225.747 110.459 213.356 136.427 203.392L136.809 203.246C143.611 200.652 149.23 198.53 154.496 196.564C180.503 186.89 202.344 179.103 226.889 174.244C257.953 168.092 291.46 164.063 323.79 162.589C352.595 161.277 379.764 162.277 406.857 165.651C436.052 169.285 464.244 175.548 493.04 184.799C533.115 197.672 573.247 216.725 612.324 241.431C614.607 242.879 616.891 244.328 619.172 245.778C637.405 257.353 656.259 269.326 675.407 280.44C728.554 311.293 775.495 331.862 823.138 345.177C841.113 350.208 859.958 354.677 879.151 358.461C902.979 363.108 926.252 366.587 948.324 368.798C987.859 372.762 1026.57 375.512 1065.39 365.761C1086.47 360.468 1103.92 351.719 1118.75 339.012C1145.55 316.057 1160.18 284.25 1173.1 256.185C1179.14 243.047 1184.85 230.635 1191.3 220.205C1193.77 216.192 1196.26 212.042 1198.67 208.027C1206.18 195.473 1213.96 182.494 1223.49 170.257C1234.46 156.065 1246.87 144.063 1260.35 134.583C1275.72 123.779 1292.1 116.587 1309.03 113.21C1319.53 111.116 1330.24 110.096 1341.76 110.096C1342.01 110.096 1342.26 110.096 1342.51 110.098C1378.31 110.235 1415.14 122.218 1443.24 132.641C1473.17 143.747 1502.5 159.208 1528.06 177.354C1556.53 197.512 1582.27 221.858 1604.56 249.716C1624.57 274.716 1641.55 302.185 1655.04 331.366L1654.26 331.563C1634.19 288.144 1595.89 226.223 1527.48 177.793C1501.99 159.688 1472.73 144.263 1442.87 133.184C1414.85 122.789 1378.13 110.841 1342.51 110.705C1330.78 110.654 1319.9 111.671 1309.25 113.797C1277.87 120.055 1247.67 140.214 1224.21 170.559C1214.69 182.768 1206.93 195.732 1199.42 208.272C1197.01 212.289 1194.52 216.441 1192.05 220.456C1185.62 230.86 1179.92 243.255 1173.88 256.38C1160.94 284.495 1146.28 316.363 1119.38 339.406C1104.45 352.199 1086.88 361.006 1065.66 366.334C1047.68 370.847 1028.25 373.044 1006.28 373.044Z" fill="#D24726"/>
<path d="M1028.27 375.896C1024 375.896 1019.65 375.795 1015.18 375.592C995.65 374.708 976.666 372.053 957.32 369.178C934.894 365.845 912.245 361.387 888.078 355.547C868.958 350.886 850.208 345.578 832.349 339.764C787.042 325.041 742.057 303.366 686.49 269.488C672.689 261.075 658.894 252.251 645.552 243.717C638.289 239.072 630.782 234.267 623.343 229.576C583.865 204.744 542.463 186.708 500.287 175.964C444.56 161.769 387.285 159.169 325.186 168.017C292.377 172.692 258.956 180.024 228.538 189.218C204.103 196.605 182.816 206.977 160.28 217.96L158.722 218.719C155.202 220.44 151.643 222.185 148.04 223.951C145.966 224.969 143.877 225.994 141.769 227.027C128.628 233.5 114.435 240.252 98.1584 245.45C79.2603 251.483 60.5682 254.452 41.0078 254.525C8.44382 254.642 -24.7714 249.066 -56.8903 243.668C-61.474 242.897 -66.217 242.101 -70.82 241.346C-92.4001 237.802 -109.413 235.763 -124.368 234.925C-179.553 231.833 -231.634 234.012 -267.259 240.904L-267.487 240.268C-231.769 233.358 -179.581 231.171 -124.299 234.269C-109.303 235.109 -92.2463 237.154 -70.6249 240.704C-66.0192 241.461 -61.2761 242.257 -56.6897 243.028C-24.9638 248.359 7.83105 253.869 39.9636 253.869C40.3098 253.869 40.6561 253.869 41.0051 253.867C82.5661 253.713 112.151 240.823 141.277 226.48C143.385 225.447 145.474 224.423 147.548 223.404C151.151 221.637 154.707 219.893 158.23 218.17L159.788 217.411C182.363 206.411 203.685 196.02 228.2 188.609C258.673 179.396 292.152 172.053 325.018 167.369C387.274 158.499 444.703 161.107 500.581 175.341C542.862 186.112 584.359 204.189 623.925 229.076C631.364 233.769 638.875 238.572 646.138 243.218C659.474 251.751 673.266 260.573 687.058 268.979C742.56 302.819 787.482 324.463 832.709 339.163C850.543 344.966 869.266 350.269 888.359 354.922C912.489 360.753 935.105 365.205 957.499 368.532C991.492 373.584 1033.8 379.873 1075.93 370.186C1097.59 365.207 1115.16 356.404 1129.64 343.271C1156.18 319.217 1168.48 285.386 1179.34 255.539C1184.05 242.573 1188.51 230.325 1193.71 220.161C1195.73 216.2 1197.76 212.104 1199.73 208.142C1206.31 194.853 1213.12 181.113 1221.86 168.046C1231.73 153.194 1243.2 140.42 1255.98 130.078C1270.46 118.358 1286.27 110.083 1302.98 105.481C1313.7 102.527 1324.69 100.707 1336.57 99.9149C1352.49 98.8539 1369.43 99.9878 1388.37 103.373C1404.39 106.24 1421.56 110.691 1440.88 116.981C1472.02 127.127 1502.33 142.024 1528.53 160.058C1557.76 180.121 1583.71 204.708 1605.64 233.131C1625.39 258.726 1641.48 286.825 1653.46 316.652L1652.6 316.838C1627.3 253.869 1583.02 198.36 1527.92 160.54C1501.79 142.554 1471.57 127.7 1440.51 117.585C1398.9 104.031 1365.9 98.6231 1336.65 100.571C1324.85 101.357 1313.94 103.165 1303.29 106.096C1263.54 117.044 1237.5 145.986 1222.66 168.335C1213.94 181.37 1207.14 195.094 1200.56 208.366C1198.6 212.331 1196.57 216.429 1194.54 220.391C1189.36 230.525 1184.91 242.759 1180.2 255.709C1169.32 285.621 1156.99 319.523 1130.34 343.686C1115.74 356.922 1098.02 365.797 1076.19 370.816C1061.39 374.218 1045.61 375.896 1028.27 375.896Z" fill="#D24726"/>
<path d="M1047.32 379.164C1018.26 379.164 990.324 373.663 966.422 368.957C943.935 364.531 921.297 359 897.213 352.049C878.199 346.521 859.571 340.378 841.846 333.788C788.713 314.054 741.345 285.73 698.075 258.06C689.24 252.411 680.315 246.588 671.686 240.957C659.705 233.137 647.314 225.053 634.898 217.261C594.829 192.185 552.09 175.13 507.868 166.572C450.663 155.502 391.347 157.549 326.532 172.832C293.16 180.7 259.772 191.34 229.975 203.602C206.994 213.058 187.549 224.996 166.963 237.634C165.504 238.529 164.042 239.428 162.572 240.327L161.775 240.817C156.771 243.893 151.596 247.072 146.35 250.263C133.781 257.943 119.939 265.886 103.929 271.954C85.3443 278.998 66.6083 282.511 46.644 282.693C11.6013 283.015 -24.1147 275.756 -58.6518 268.736C-61.0728 268.244 -63.4828 267.754 -65.8818 267.271C-88.6574 262.666 -105.272 259.937 -119.748 258.418C-173.549 252.777 -227.696 251.004 -268.306 253.553L-268.389 252.846C-227.713 250.291 -173.486 252.067 -119.614 257.716C-105.096 259.238 -88.4458 261.974 -65.629 266.586C-63.23 267.07 -60.82 267.56 -58.3962 268.054C-23.9251 275.06 11.7222 282.3 46.6302 281.984C89.9857 281.588 120.519 265.12 145.735 249.716C150.981 246.525 156.155 243.346 161.159 240.273L161.956 239.783C163.426 238.882 164.888 237.985 166.348 237.09C186.969 224.429 206.447 212.471 229.505 202.983C259.357 190.699 292.809 180.04 326.238 172.158C356.967 164.913 385.829 160.73 414.472 159.37C446.423 157.853 477.926 160.046 508.11 165.887C552.471 174.472 595.338 191.575 635.519 216.721C647.943 224.516 660.337 232.603 672.321 240.424C680.95 246.055 689.87 251.876 698.702 257.523C741.928 285.163 789.238 313.457 842.275 333.154C859.975 339.734 878.576 345.869 897.562 351.389C921.61 358.329 944.212 363.853 966.666 368.273C1001.14 375.06 1044.05 383.507 1086.45 374.619C1108.69 369.954 1126.38 361.095 1140.52 347.538C1166.78 322.352 1176.61 286.439 1185.28 254.752C1188.76 242.02 1192.05 229.995 1196.11 220.12C1197.61 216.468 1199.11 212.693 1200.57 209.043C1206.27 194.764 1212.16 179.998 1220.22 165.839C1228.99 150.315 1239.55 136.765 1251.59 125.571C1265.19 112.938 1280.43 103.58 1296.91 97.7547C1307.61 93.9724 1318.64 91.3504 1330.62 89.7367C1346.77 87.5641 1364.69 87.637 1383.88 89.9533C1400.68 91.9821 1419.06 95.8068 1438.49 101.324C1470.85 110.511 1502.15 124.84 1528.99 142.763C1558.98 162.733 1585.13 187.556 1606.7 216.547C1626.19 242.737 1641.39 271.468 1651.87 301.94L1650.93 302.114C1628.73 237.545 1585.2 181.14 1528.35 143.289C1501.59 125.425 1470.4 111.142 1438.15 101.986C1396.34 90.1193 1361.23 86.3391 1330.8 90.4352C1318.9 92.0368 1307.95 94.6406 1297.32 98.3945C1258.12 112.254 1234.24 142.868 1221.11 166.112C1213.07 180.235 1207.18 194.981 1201.49 209.241C1200.04 212.892 1198.53 216.668 1197.03 220.325C1192.98 230.167 1189.7 242.176 1186.22 254.891C1182.05 270.136 1177.32 287.413 1170.46 303.611C1162.6 322.17 1153.05 336.679 1141.28 347.969C1134.48 354.497 1126.66 360.053 1118.04 364.483C1108.76 369.247 1098.22 372.887 1086.71 375.301C1073.54 378.065 1060.32 379.164 1047.32 379.164Z" fill="#D24726"/>
<path d="M1064.5 382.747C1054.89 382.747 1044.82 382.059 1034.19 380.684C1013.25 377.977 993.209 373.065 975.523 368.734C953.231 363.273 929.955 356.48 906.347 348.545C887.454 342.159 868.947 335.182 851.343 327.803C800.815 306.651 757.284 278.525 709.66 246.627C705.428 243.793 701.13 240.901 696.976 238.103C680.611 227.09 663.692 215.703 646.453 204.944C605.719 179.574 561.644 163.503 515.45 157.178C457.181 149.198 394.07 156.083 327.878 177.642C293.913 188.705 260.555 202.652 231.412 217.977C209.469 229.516 191.406 243.12 172.283 257.524C170.34 258.988 168.389 260.456 166.427 261.93C161.544 265.603 156.284 269.545 150.934 273.492C139.713 281.795 126.039 291.257 109.702 298.451C91.4142 306.505 72.6315 310.565 52.2852 310.858C15.0385 311.399 -22.8758 302.312 -59.5426 293.524L-60.9386 293.19C-78.8914 288.89 -97.883 284.545 -115.124 281.906C-167.677 273.866 -222.448 268.284 -269.343 266.188L-269.28 265.431C-222.335 267.529 -167.515 273.115 -114.915 281.163C-97.6247 283.81 -78.6001 288.161 -60.6199 292.467L-59.2239 292.802C-22.6367 301.569 15.2007 310.634 52.266 310.097C95.0718 309.477 124.635 291.878 150.205 272.951C155.556 269.007 160.81 265.065 165.693 261.394C167.655 259.922 169.606 258.452 171.549 256.99C190.706 242.562 208.801 228.933 230.816 217.355C260.013 202 293.435 188.027 327.463 176.943C358.519 166.83 389.079 159.861 418.291 156.232C451.668 152.088 484.422 152.152 515.642 156.427C562.012 162.776 606.25 178.903 647.121 204.361C664.373 215.13 681.301 226.521 697.674 237.54C701.828 240.336 706.126 243.228 710.358 246.062C757.935 277.93 801.42 306.025 851.857 327.141C869.436 334.507 887.916 341.474 906.781 347.852C930.356 355.775 953.594 362.558 975.853 368.011C1010.74 376.559 1054.17 387.195 1096.99 379.046C1119.83 374.699 1137.63 365.788 1151.41 351.801C1177.38 325.449 1184.9 285.729 1190.94 253.813C1193.29 241.381 1195.51 229.64 1198.52 220.083C1199.47 217.07 1200.43 213.966 1201.36 210.963C1206.17 195.365 1211.14 179.233 1218.6 163.635C1230.13 139.36 1252.01 106.887 1290.86 90.0352C1301.58 85.3824 1312.65 81.9565 1324.69 79.5633C1356.18 73.2116 1393.67 75.2667 1436.13 85.6679C1469.7 93.8944 1501.98 107.657 1529.47 125.468C1560.22 145.343 1586.57 170.406 1607.78 199.965C1617.51 213.523 1626.11 228.004 1633.35 243.005C1640.25 257.334 1645.95 272.214 1650.29 287.232L1649.28 287.389C1630.19 221.217 1587.4 163.914 1528.79 126.037C1501.4 108.292 1469.25 94.5828 1435.8 86.3866C1393.55 76.0321 1356.25 73.983 1324.96 80.2942C1313.01 82.6692 1302.03 86.0688 1291.38 90.6872C1252.8 107.422 1231.04 139.729 1219.58 163.884C1212.13 179.442 1207.17 195.551 1202.36 211.129C1201.43 214.132 1200.48 217.238 1199.53 220.253C1196.53 229.777 1194.31 241.503 1191.96 253.916C1188.92 269.977 1185.48 288.179 1179.59 305.359C1172.83 325.1 1163.88 340.438 1152.25 352.246C1145.61 358.982 1137.84 364.664 1129.17 369.131C1119.82 373.943 1109.08 377.527 1097.24 379.779C1086.85 381.759 1076 382.747 1064.5 382.747Z" fill="#D24726"/>
<path d="M1080.33 386.535C1068.81 386.535 1056.67 385.436 1043.7 383.231C1022.68 379.661 1002.46 373.737 984.622 368.509C962.162 361.928 938.9 354.034 915.482 345.042C896.713 337.803 878.328 329.992 860.84 321.822C812.717 299.357 771.442 270.404 727.742 239.753C725.58 238.236 723.417 236.718 721.249 235.199C700.927 220.961 679.916 206.237 658.012 192.631C616.569 166.939 571.158 151.851 523.04 147.785C462.6 142.676 397.392 154.341 329.225 182.451C295.128 196.51 260.901 214.233 232.849 232.353C211.668 246.034 194.679 261.428 176.694 277.727C174.564 279.657 172.429 281.592 170.277 283.532C165.979 287.413 160.865 292.016 155.512 296.723C145.597 305.464 132.088 316.572 115.473 324.928C97.4766 333.981 78.6526 338.595 57.9243 339.03C40.8867 339.344 22.0847 337.407 0.441315 333.104C-18.1408 329.411 -36.1155 324.584 -56.0057 319.117C-74.1618 314.065 -93.3237 308.847 -110.515 305.401C-161.439 295.193 -215.229 286.253 -270.387 278.827L-270.189 278.031C-214.998 285.46 -161.178 294.407 -110.227 304.62C-92.9885 308.076 -73.7991 313.302 -55.621 318.358C-22.282 327.524 19.2103 338.935 57.8941 338.22C102.121 337.289 130.543 317.475 154.668 296.201C160.019 291.497 165.13 286.897 169.425 283.018C171.577 281.078 173.712 279.142 175.839 277.215C193.855 260.889 210.874 245.469 232.124 231.743C260.233 213.587 294.526 195.83 328.689 181.744C397.063 153.549 462.496 141.854 523.166 146.981C546.428 148.947 569.278 153.513 591.075 160.551C614.464 168.101 637.223 178.689 658.721 192.013C680.65 205.634 701.675 220.366 722.007 234.614C724.176 236.135 726.341 237.651 728.504 239.168C772.161 269.792 813.401 298.718 861.431 321.14C878.894 329.297 897.251 337.099 915.993 344.325C939.378 353.303 962.605 361.187 985.031 367.757C1020.28 378.084 1064.14 390.935 1107.52 383.482C1131.01 379.444 1148.93 370.479 1162.29 356.075C1188.04 328.562 1192.62 286.535 1196.3 252.766C1197.62 240.688 1198.87 229.281 1200.93 220.056C1201.36 218.153 1201.78 216.24 1202.21 214.316C1206.06 196.942 1210.05 178.974 1216.97 161.44C1226.86 136.22 1246.65 102.022 1284.8 82.3248C1295.44 76.8297 1306.54 72.602 1318.74 69.3989C1335.7 64.9059 1354.6 62.7941 1374.91 63.1181C1393.45 63.4137 1413.25 65.7361 1433.75 70.0184C1468.54 77.2812 1501.8 90.4765 1529.94 108.177C1561.45 127.955 1588 153.26 1608.85 183.386C1618.42 197.209 1626.71 211.988 1633.48 227.311C1639.96 241.986 1645.09 257.2 1648.7 272.53L1647.61 272.667C1631.88 205.869 1588.73 146.139 1529.23 108.792C1501.2 91.1689 1468.09 78.0283 1433.45 70.7939C1390.74 61.8729 1351.2 61.6542 1319.1 70.1581C1307 73.337 1295.98 77.5323 1285.42 82.9849C1247.54 102.546 1227.87 136.568 1218.03 161.663C1211.12 179.15 1207.14 197.092 1203.29 214.444C1202.87 216.367 1202.44 218.283 1202.01 220.186C1199.96 229.376 1198.71 240.769 1197.4 252.829C1193.7 286.695 1189.1 328.844 1163.2 356.532C1156.76 363.475 1149.05 369.286 1140.31 373.799C1130.9 378.655 1119.95 382.178 1107.77 384.271C1098.97 385.778 1089.87 386.535 1080.33 386.535Z" fill="#D24726"/>
<path d="M1095.2 390.478C1082.08 390.478 1068.18 388.915 1053.2 385.777C1032.01 381.336 1011.66 374.402 993.715 368.285C971.033 360.554 947.782 351.554 924.608 341.54C905.974 333.461 887.713 324.813 870.329 315.842C827.523 293.756 790.939 266.699 752.206 238.053C745.874 233.37 739.326 228.529 732.829 223.768C709.993 207.044 690.493 193.253 669.562 180.317C627.38 154.285 580.636 140.179 530.625 138.389C467.783 136.139 400.471 152.58 330.561 187.254C295.832 204.481 261.635 225.599 234.273 246.721C213.66 262.633 197.546 279.955 180.486 298.293C178.373 300.565 176.252 302.845 174.116 305.127C170.313 309.199 165.279 314.564 160.082 319.944C138.214 342.637 109.642 366.001 63.5554 367.195C62.1181 367.23 60.6754 367.246 59.2355 367.246C23.2475 367.246 -13.4935 356.752 -51.0809 345.035L-53.4277 344.298C-72.0455 338.442 -89.6328 332.912 -105.912 328.887C-167.262 313.718 -226.594 300.913 -271.431 291.454L-271.109 290.626C-226.261 300.089 -166.913 312.896 -105.541 328.071C-89.2179 332.107 -71.6114 337.644 -52.9688 343.506L-50.6247 344.243C-11.6606 356.389 26.3912 367.224 63.5141 366.337C109.09 365.155 137.422 341.971 159.129 319.448C164.322 314.072 169.351 308.711 173.155 304.641C175.29 302.357 177.408 300.079 179.522 297.807C196.609 279.441 212.748 262.091 233.427 246.128C260.844 224.961 295.109 203.8 329.907 186.539C362.204 170.52 394.513 158.219 425.934 149.976C461.985 140.519 497.228 136.332 530.68 137.528C580.949 139.326 627.929 153.502 670.309 179.655C691.271 192.612 710.79 206.416 733.648 223.155C740.147 227.915 746.696 232.758 753.03 237.442C791.725 266.059 828.274 293.09 870.997 315.131C888.356 324.093 906.589 332.726 925.196 340.793C948.337 350.795 971.552 359.781 994.202 367.499C1029.76 379.617 1074 394.698 1118.04 387.909C1142.12 384.197 1160.15 375.179 1173.17 360.34C1198.59 331.574 1200.11 287.181 1201.34 251.512C1201.74 239.873 1202.12 228.879 1203.33 220.021L1203.36 219.818C1206.08 199.982 1208.89 179.471 1215.33 159.234C1220.92 141.582 1228.69 125.712 1238.44 112.061C1249.43 96.671 1262.98 84.0689 1278.72 74.6032C1289.25 68.2698 1300.39 63.2383 1312.78 59.2232C1346.24 48.3119 1387.25 46.6273 1431.36 54.3558C1449.12 57.4658 1466.63 62.1773 1483.42 68.3569C1500.31 74.5729 1516.12 82.1515 1530.4 90.8782C1562.68 110.561 1589.43 136.105 1609.92 166.802C1628.34 194.393 1641.2 225.868 1647.11 257.821L1645.95 257.936C1633.31 189.548 1590.92 128.899 1529.66 91.5402C1501.01 74.0424 1466.93 61.4727 1431.1 55.198C1387.23 47.5141 1346.48 49.1805 1313.25 60.0169C1300.97 64.0016 1289.92 68.9927 1279.47 75.2754C1250.08 92.9495 1228.3 122.051 1216.47 159.434C1210.05 179.619 1207.24 200.101 1204.53 219.909L1204.5 220.112C1203.29 228.938 1202.91 239.916 1202.51 251.538C1201.28 287.317 1199.74 331.843 1174.15 360.811C1167.87 367.967 1160.22 373.903 1151.42 378.455C1141.93 383.363 1130.79 386.827 1118.28 388.757C1110.84 389.903 1103.16 390.478 1095.2 390.478Z" fill="#D24726"/>
<path d="M64.4096 395.436C48.3172 395.436 30.7931 393.126 11.0157 388.408C-8.63541 383.721 -28.0694 377.25 -46.1459 370.957C-49.4188 369.811 -52.6669 368.667 -55.8931 367.531C-71.9525 361.876 -87.1216 356.535 -101.299 352.374C-157.828 335.789 -211.711 320.883 -263.822 306.471L-272.456 304.082L-272.022 303.229L-263.388 305.618C-211.274 320.034 -157.383 334.941 -100.842 351.529C-86.6269 355.7 -71.4386 361.048 -55.36 366.711C-52.1365 367.847 -48.8884 368.991 -45.6183 370.135C-8.51178 383.053 30.9113 395.572 69.1472 394.456C116.149 393.014 144.316 366.037 163.602 342.698C168.543 336.729 173.303 330.78 176.897 326.265C178.881 323.776 180.851 321.29 182.816 318.81C199.112 298.248 214.504 278.827 234.745 260.515C261.464 236.348 295.696 211.779 331.14 191.34C364.023 172.376 397.206 157.393 429.77 146.807C467.121 134.665 503.603 128.364 538.203 128.078C590.267 127.507 638.624 140.705 681.911 167.3C705.907 182.06 727.421 198.027 745.305 211.7C755.036 219.141 764.766 226.769 774.178 234.145C807.493 260.258 841.942 287.258 880.576 309.127C897.834 318.899 915.949 328.366 934.413 337.265C957.262 348.253 980.467 358.341 1003.39 367.246C1039.21 381.164 1083.79 398.485 1128.58 392.338C1153.23 388.955 1171.38 379.884 1184.05 364.607C1209.13 334.538 1207.44 287.713 1206.08 250.09C1205.67 238.964 1205.29 228.453 1205.75 219.992C1206.78 200.917 1208.33 178.748 1213.71 157.034C1218.24 138.635 1225.09 121.99 1234.05 107.562C1244.19 91.24 1257.18 77.5568 1272.67 66.8904C1282.92 59.822 1294.42 53.8227 1306.83 49.0565C1324.55 42.2331 1344.42 37.9426 1365.92 36.3066C1386.04 34.7739 1407.26 35.5797 1428.99 38.6999C1447.31 41.332 1465.37 45.661 1482.66 51.5692C1500.06 57.5138 1516.28 64.9204 1530.88 73.5822C1547.7 83.5561 1563.17 95.3341 1576.85 108.59C1589.81 121.15 1601.3 135.157 1611 150.221C1629.14 178.403 1641.08 210.528 1645.52 243.116L1644.29 243.207C1634.75 173.226 1593.13 111.66 1530.1 74.2929C1501.23 57.1595 1465.24 44.8369 1428.75 39.5948C1383.63 33.1136 1341.67 36.665 1307.41 49.8643C1295.09 54.5921 1283.69 60.5449 1273.51 67.5566C1244.34 87.6542 1224.63 117.813 1214.93 157.198C1209.56 178.853 1208.01 200.983 1206.99 220.028C1206.53 228.459 1206.91 238.953 1207.31 250.065C1207.98 268.626 1208.74 289.665 1206.19 310.004C1203.23 333.604 1196.34 351.621 1185.11 365.083C1179 372.449 1171.41 378.513 1162.55 383.105C1152.99 388.066 1141.63 391.474 1128.81 393.233C1122.34 394.122 1115.87 394.525 1109.44 394.525C1070.95 394.525 1033.65 380.032 1002.81 368.049C979.859 359.13 956.619 349.029 933.739 338.024C915.248 329.113 897.108 319.632 879.826 309.846C841.112 287.932 806.627 260.904 773.28 234.766C763.871 227.392 754.143 219.767 744.417 212.33C726.558 198.673 705.074 182.728 681.122 167.996C638.069 141.543 589.995 128.423 538.223 128.985C456.917 129.658 381.149 163.651 331.904 192.052C296.532 212.452 262.368 236.967 235.707 261.086C215.526 279.343 200.156 298.734 183.885 319.263C181.92 321.743 179.947 324.23 177.963 326.72C174.366 331.237 169.604 337.19 164.66 343.165C156.564 352.963 143.855 367.225 127.02 377.916C118.845 383.107 110.145 387.187 101.162 390.044C91.1451 393.229 80.3893 395.019 69.1994 395.361C67.6138 395.412 66.0172 395.436 64.4096 395.436Z" fill="#D24726"/>
<path d="M69.5767 423.62C53.465 423.62 35.9767 421.132 16.3036 416.054C-4.0647 410.797 -24.2022 403.407 -41.2124 396.869C-46.4391 394.857 -51.6549 392.816 -56.7002 390.842C-70.803 385.324 -84.1254 380.11 -96.6866 375.854C-141.795 360.568 -186.61 345.643 -229.952 331.209C-244.288 326.434 -259.111 321.498 -273.478 316.703L-272.939 315.827C-258.572 320.621 -243.749 325.558 -229.413 330.332C-186.071 344.766 -141.251 359.693 -96.1398 374.982C-83.5456 379.25 -70.2067 384.468 -56.0874 389.993C-51.0448 391.967 -45.8291 394.006 -40.6078 396.019C-5.3288 409.572 35.5919 423.92 74.7759 422.569C122.885 420.873 149.907 391.415 168.077 365.941C172.734 359.415 177.238 352.863 180.641 347.885C182.388 345.329 184.125 342.776 185.859 340.229C201.446 317.319 216.167 295.68 236.068 274.9C261.952 247.874 296.156 219.902 332.375 196.138C382.815 163.185 460.773 122.99 545.726 118.63C599.752 115.784 649.477 128.001 693.514 154.946C713.3 167.058 732.866 181.029 756.96 200.25C769.137 209.963 781.22 220.03 792.904 229.763C823.306 255.086 854.737 281.272 890.157 303.129C907.315 313.721 925.306 324.021 943.63 333.744C965.818 345.505 989.014 356.694 1012.57 367C1048.75 382.734 1093.78 402.32 1139.11 396.776C1163.97 393.8 1182.75 384.415 1194.94 368.885C1219.67 337.455 1214.36 286.035 1210.48 248.49C1209.4 237.953 1208.37 228.001 1208.17 219.973C1207.72 202.131 1207.76 178.605 1212.09 154.845C1219.57 113.672 1237.91 81.4865 1266.61 59.1879C1276.67 51.3319 1288.2 44.5065 1300.89 38.9C1318.94 30.9143 1339.31 25.5427 1361.43 22.9368C1382.26 20.4828 1404.19 20.5213 1426.61 23.0523C1445.52 25.2349 1464.12 29.1913 1481.89 34.8079C1499.83 40.4813 1516.47 47.7096 1531.35 56.2925C1548.55 66.2097 1564.26 78.0282 1578.05 91.4219C1591.12 104.115 1602.56 118.321 1612.08 133.648C1629.94 162.424 1640.96 195.196 1643.94 228.422L1642.64 228.485C1636.22 156.906 1595.36 94.4205 1530.55 57.0518C1501.16 40.0986 1464.18 28.3611 1426.41 24.0039C1379.86 18.7497 1336.69 24.1861 1301.57 39.7261C1288.98 45.286 1277.54 52.0568 1267.56 59.85C1239.06 82.0007 1220.83 114.004 1213.39 154.975C1209.06 178.67 1209.03 202.149 1209.48 219.957C1209.68 227.957 1210.7 237.896 1211.79 248.419C1213.79 267.826 1216.06 289.825 1214.77 311.301C1213.25 336.309 1207.14 355.303 1196.07 369.369C1190.11 376.956 1182.58 383.152 1173.68 387.784C1164.03 392.808 1152.48 396.152 1139.33 397.728C1118.94 400.22 1096.99 397.981 1072.24 390.88C1050.72 384.707 1030.1 375.741 1011.91 367.832C988.318 357.512 965.092 346.307 942.872 334.529C924.521 324.792 906.505 314.478 889.321 303.873C853.828 281.971 822.36 255.756 791.929 230.407C780.25 220.676 768.169 210.615 756.004 200.91C731.95 181.724 712.42 167.779 692.681 155.695C648.905 128.904 599.496 116.76 545.814 119.588C461.227 123.931 383.527 164.003 333.238 196.857C297.091 220.572 262.957 248.486 237.129 275.455C217.283 296.177 202.583 317.785 187.021 340.66C185.287 343.209 183.551 345.763 181.803 348.318C178.398 353.301 173.891 359.859 169.228 366.391C150.899 392.091 123.605 421.812 74.8336 423.531C73.0996 423.59 71.3436 423.62 69.5767 423.62Z" fill="#D24726"/>
<path d="M74.8472 451.816C30.8239 451.816 -15.3675 431.894 -56.3157 414.232C-68.8988 408.806 -80.784 403.679 -92.0784 399.344L-274.5 329.335L-273.865 328.438L-91.4436 398.447C-80.119 402.792 -68.2201 407.925 -55.6204 413.36C-13.0894 431.704 35.1191 452.496 80.4037 450.694C129.574 448.74 155.477 416.802 172.55 389.198C178.134 380.17 183.526 370.984 188.741 362.099C203.006 337.802 217.755 312.677 237.384 289.293C252.971 270.726 272.333 251.254 293.378 232.985C316.464 212.942 341.182 194.553 366.84 178.331C395.131 160.446 423.898 145.651 452.337 134.359C483.793 121.871 514.783 113.717 544.45 110.123C603.882 102.925 657.935 113.849 705.105 142.594C744.305 166.48 777.622 196.017 809.843 224.582C837.889 249.446 866.889 275.154 899.728 297.131C937.659 322.513 978.711 345.937 1021.75 366.75C1058.01 384.286 1103.14 406.113 1149.65 401.207C1188.93 397.064 1211.64 377.7 1219.07 342.003C1225.4 311.64 1219.38 275.622 1214.55 246.682C1212.9 236.82 1211.34 227.504 1210.58 219.95C1206.37 178.305 1209.05 143.926 1218.79 114.853C1224.87 96.7133 1233.84 80.5436 1245.45 66.7936C1258.42 51.4338 1275.07 38.6293 1294.94 28.7364C1312.13 20.1778 1331.5 13.9618 1352.52 10.2606C1372.53 6.73753 1393.59 5.5571 1415.13 6.7517C1457.49 9.10041 1498.93 20.5524 1531.81 38.9958C1549.38 48.8543 1565.34 60.7153 1579.24 74.2467C1592.4 87.0714 1603.81 101.478 1613.15 117.068C1630.72 146.437 1640.82 179.86 1642.34 213.719L1640.97 213.754C1637.73 141.649 1596.61 76.6197 1530.97 39.8037C1461.27 0.705802 1362.33 -3.59678 1295.7 29.5767C1229.71 62.4383 1202.31 124.685 1211.95 219.875C1212.71 227.405 1214.26 236.708 1215.91 246.559C1220.75 275.561 1226.79 311.656 1220.43 342.157C1216.97 358.77 1210.01 372.121 1199.75 381.842C1193.98 387.307 1187.02 391.774 1179.07 395.115C1170.61 398.67 1160.78 401.057 1149.84 402.211C1145.37 402.683 1140.82 402.92 1136.19 402.92C1119.34 402.92 1101.39 399.78 1081.72 393.418C1059.56 386.25 1038.17 375.908 1020.99 367.598C977.895 346.755 936.785 323.301 898.799 297.882C865.886 275.859 836.856 250.12 808.779 225.23C776.6 196.701 743.324 167.201 704.223 143.376C657.369 114.827 603.687 103.974 544.665 111.123C425.274 125.584 302.29 213.896 238.544 289.828C218.967 313.147 204.238 338.237 189.992 362.502C184.773 371.391 179.379 380.583 173.79 389.619C162.454 407.945 151.259 421.068 138.557 430.912C130.629 437.055 122.028 441.898 112.992 445.306C102.946 449.094 92.0031 451.249 80.4669 451.708C78.6037 451.779 76.7268 451.816 74.8472 451.816Z" fill="#D24726"/>
</g>
</svg>
