<svg width="77" height="77" viewBox="0 0 77 77" fill="none" xmlns="http://www.w3.org/2000/svg">
<rect opacity="0.9" x="45.2837" y="19.0186" width="6.24" height="36.7945" rx="3.12" fill="white"/>
<rect opacity="0.9" width="6.25854" height="12.4169" rx="3.12927" transform="matrix(-1 0 0 1 41.2854 30.9844)" fill="white"/>
<rect opacity="0.9" width="6.24" height="36.7945" rx="3.12" transform="matrix(-1 0 0 1 31.1028 19.123)" fill="white"/>
<path d="M4.29909e-06 38.1612C0.00191804 29.7958 2.75291 21.6629 7.8296 15.0141C12.9063 8.36525 20.0273 3.56905 28.0967 1.3636C36.1661 -0.841841 44.7367 -0.334299 52.4894 2.80812C60.2422 5.95054 66.7473 11.5537 71.0038 18.7552C75.2603 25.9567 77.0322 34.3575 76.0468 42.6646C75.0614 50.9717 71.3733 58.7248 65.5501 64.7307C59.7269 70.7365 52.0914 74.6622 43.8186 75.9036C35.5459 77.1451 27.0944 75.6334 19.7649 71.6013L4.92979 76.119C4.26809 76.3205 3.56404 76.3384 2.89296 76.1708C2.22187 76.0031 1.60899 75.6561 1.11987 75.167C0.630752 74.6779 0.283795 74.065 0.116111 73.3939C-0.0515722 72.7228 -0.0336742 72.0188 0.167891 71.3571L4.68559 56.4991C1.6084 50.877 -0.00303776 44.5703 4.29909e-06 38.1612ZM38.1562 7.6362C32.7376 7.63575 27.4165 9.0777 22.7394 11.814C18.0624 14.5502 14.198 18.4822 11.5432 23.2059C8.88845 27.9297 7.53894 33.275 7.63332 38.6928C7.7277 44.1107 9.26256 49.4057 12.0803 54.0342C12.36 54.4939 12.5392 55.0077 12.6063 55.5417C12.6734 56.0756 12.6268 56.6178 12.4695 57.1324L9.54669 66.7402L19.1392 63.8174C19.6555 63.6601 20.1993 63.6142 20.7347 63.6826C21.2701 63.751 21.7849 63.9322 22.2451 64.2142C26.2681 66.6704 30.8053 68.1616 35.5011 68.5709C40.1968 68.9801 44.9236 68.2964 49.3109 66.5732C53.6982 64.8499 57.6268 62.1341 60.7888 58.6385C63.9509 55.1429 66.2604 50.9625 67.5365 46.425C68.8126 41.8874 69.0205 37.116 68.144 32.4847C67.2674 27.8533 65.3302 23.4879 62.4842 19.7305C59.6382 15.9731 55.9607 12.9258 51.7399 10.8276C47.5191 8.72926 42.8698 7.63694 38.1562 7.6362Z" fill="white"/>
</svg>
