<svg width="215" height="77" viewBox="0 0 215 77" fill="none" xmlns="http://www.w3.org/2000/svg">
<rect opacity="0.9" x="45.2837" y="19.0045" width="6.24" height="36.7945" rx="3.12" fill="#002050"/>
<rect opacity="0.9" width="6.25854" height="12.4169" rx="3.12927" transform="matrix(-1 0 0 1 41.2854 30.9705)" fill="#D24726"/>
<rect opacity="0.9" width="6.24" height="36.7945" rx="3.12" transform="matrix(-1 0 0 1 31.1028 19.1092)" fill="#002050"/>
<path d="M4.29909e-06 38.1475C0.00191804 29.7821 2.75291 21.6492 7.8296 15.0004C12.9063 8.35158 20.0273 3.55538 28.0967 1.34993C36.1661 -0.855513 44.7367 -0.347971 52.4894 2.79445C60.2422 5.93686 66.7473 11.54 71.0038 18.7415C75.2603 25.943 77.0322 34.3438 76.0468 42.6509C75.0614 50.958 71.3733 58.7111 65.5501 64.717C59.7269 70.7228 52.0914 74.6485 43.8186 75.89C35.5459 77.1314 27.0944 75.6197 19.7649 71.5876L4.92979 76.1053C4.26809 76.3069 3.56404 76.3248 2.89296 76.1571C2.22187 75.9894 1.60899 75.6425 1.11987 75.1533C0.630752 74.6642 0.283795 74.0513 0.116111 73.3802C-0.0515722 72.7092 -0.0336742 72.0051 0.167891 71.3434L4.68559 56.4854C1.6084 50.8633 -0.00303776 44.5566 4.29909e-06 38.1475ZM38.1562 7.62253C32.7376 7.62207 27.4165 9.06403 22.7394 11.8003C18.0624 14.5366 14.198 18.4685 11.5432 23.1923C8.88845 27.916 7.53894 33.2613 7.63332 38.6792C7.7277 44.097 9.26256 49.3921 12.0803 54.0205C12.36 54.4803 12.5392 54.994 12.6063 55.528C12.6734 56.062 12.6268 56.6041 12.4695 57.1188L9.54669 66.7265L19.1392 63.8037C19.6555 63.6465 20.1993 63.6005 20.7347 63.6689C21.2701 63.7373 21.7849 63.9185 22.2451 64.2006C26.2681 66.6568 30.8053 68.1479 35.5011 68.5572C40.1968 68.9665 44.9236 68.2827 49.3109 66.5595C53.6982 64.8363 57.6268 62.1204 60.7888 58.6248C63.9509 55.1293 66.2604 50.9489 67.5365 46.4113C68.8126 41.8738 69.0205 37.1023 68.144 32.471C67.2674 27.8396 65.3302 23.4742 62.4842 19.7168C59.6382 15.9594 55.9607 12.9122 51.7399 10.8139C47.5191 8.71559 42.8698 7.62327 38.1562 7.62253Z" fill="#DFE2E8"/>
<path d="M119.881 16.6522C121.177 16.6522 122.281 17.7562 122.281 19.0522V47.7562C122.281 49.1002 121.177 50.1562 119.881 50.1562C118.537 50.1562 117.481 49.1002 117.481 47.7562V35.9002H102.648V47.7562C102.648 49.1002 101.545 50.1562 100.249 50.1562C98.9045 50.1562 97.8485 49.1002 97.8485 47.7562V19.0522C97.8485 17.7562 98.9045 16.6522 100.249 16.6522C101.545 16.6522 102.648 17.7562 102.648 19.0522V31.1002H117.481V19.0522C117.481 17.7562 118.537 16.6522 119.881 16.6522ZM137.125 26.1562C143.893 26.1562 148.933 31.5322 148.933 38.3002V47.7082C148.933 49.1002 147.925 50.1082 146.533 50.1082C145.573 50.1082 144.229 49.1002 144.229 47.7082C142.165 49.4362 139.861 50.1082 137.125 50.1082C130.357 50.1082 124.981 45.0682 124.981 38.3002C124.981 31.5322 130.357 26.1562 137.125 26.1562ZM137.125 45.4042C141.157 45.4042 144.229 42.3322 144.229 38.3002C144.229 34.2682 141.157 30.8602 137.125 30.8602C133.093 30.8602 129.685 34.2682 129.685 38.3002C129.685 42.3322 133.093 45.4042 137.125 45.4042ZM163.755 25.9642C170.427 25.9642 175.803 31.3402 175.803 38.0122C175.803 44.6362 170.427 50.0602 163.755 50.0602C157.131 50.0602 151.707 44.6362 151.707 38.0122V37.9642V16.4602C151.707 15.1642 152.763 14.1082 154.107 14.1082C155.403 14.1082 156.459 15.1642 156.459 16.4602V28.4122C158.475 26.8762 161.019 25.9642 163.755 25.9642ZM163.755 45.3082C167.787 45.3082 171.051 41.9962 171.051 38.0122C171.051 33.9802 167.787 30.7162 163.755 30.7162C159.723 30.7162 156.459 33.9802 156.459 37.9642V38.0122C156.459 42.0442 159.723 45.3082 163.755 45.3082ZM180.966 50.2043C179.622 50.2043 178.566 49.1482 178.566 47.8042V16.5562C178.566 15.2602 179.622 14.2042 180.966 14.2042C182.262 14.2042 183.318 15.2602 183.318 16.5562V47.8042C183.318 49.1482 182.262 50.2043 180.966 50.2043ZM188.701 50.2043C187.357 50.2043 186.301 49.1482 186.301 47.8042V28.4602C186.301 27.1642 187.357 26.1082 188.701 26.1082C189.997 26.1082 191.053 27.1642 191.053 28.4602V47.8042C191.053 49.1482 189.997 50.2043 188.701 50.2043ZM188.701 21.3082C188.077 21.3082 187.453 21.0682 187.021 20.6362C186.589 20.2042 186.301 19.5802 186.301 18.9562C186.301 18.3322 186.589 17.7082 187.021 17.2762C187.453 16.8442 188.077 16.5562 188.701 16.5562C189.325 16.5562 189.949 16.8442 190.381 17.2762C190.812 17.7082 191.053 18.3322 191.053 18.9562C191.053 19.5802 190.812 20.2042 190.381 20.6362C189.949 21.0682 189.325 21.3082 188.701 21.3082ZM206.867 38.1082L213.203 46.3162C214.019 47.3722 213.827 48.8602 212.771 49.6282C212.339 49.9642 211.859 50.1562 211.331 50.1562C210.611 50.1562 209.939 49.8202 209.459 49.2442L203.843 41.9962L198.227 49.2442C197.747 49.8202 197.075 50.1562 196.355 50.1562C195.827 50.1562 195.347 49.9642 194.915 49.6282C193.859 48.8602 193.667 47.3722 194.483 46.3162L200.819 38.1082L194.483 29.9002C193.667 28.8442 193.859 27.3562 194.915 26.5402C195.923 25.7242 197.411 25.9163 198.227 26.9722L203.843 34.2202L209.459 26.9722C210.275 25.9163 211.763 25.7242 212.771 26.5402C213.827 27.3562 214.019 28.8442 213.203 29.9002L206.867 38.1082Z" fill="#002050"/>
</svg>
