<svg width="215" height="77" viewBox="0 0 215 77" fill="none" xmlns="http://www.w3.org/2000/svg">
<rect opacity="0.9" x="45.2837" y="19.3169" width="6.24" height="36.7945" rx="3.12" fill="white"/>
<rect opacity="0.9" width="6.25854" height="12.4169" rx="3.12927" transform="matrix(-1 0 0 1 41.2854 31.283)" fill="white"/>
<rect opacity="0.9" width="6.24" height="36.7945" rx="3.12" transform="matrix(-1 0 0 1 31.1028 19.4216)" fill="white"/>
<path d="M4.29909e-06 38.46C0.00191804 30.0946 2.75291 21.9617 7.8296 15.3129C12.9063 8.66408 20.0273 3.86788 28.0967 1.66243C36.1661 -0.543013 44.7367 -0.0354713 52.4894 3.10695C60.2422 6.24936 66.7473 11.8525 71.0038 19.054C75.2603 26.2555 77.0322 34.6563 76.0468 42.9634C75.0614 51.2705 71.3733 59.0236 65.5501 65.0295C59.7269 71.0353 52.0914 74.961 43.8186 76.2025C35.5459 77.4439 27.0944 75.9322 19.7649 71.9001L4.92979 76.4178C4.26809 76.6194 3.56404 76.6373 2.89296 76.4696C2.22187 76.3019 1.60899 75.955 1.11987 75.4658C0.630752 74.9767 0.283795 74.3638 0.116111 73.6927C-0.0515722 73.0217 -0.0336742 72.3176 0.167891 71.6559L4.68559 56.7979C1.6084 51.1758 -0.00303776 44.8691 4.29909e-06 38.46ZM38.1562 7.93503C32.7376 7.93457 27.4165 9.37653 22.7394 12.1128C18.0624 14.8491 14.198 18.781 11.5432 23.5048C8.88845 28.2285 7.53894 33.5738 7.63332 38.9917C7.7277 44.4095 9.26256 49.7046 12.0803 54.333C12.36 54.7928 12.5392 55.3065 12.6063 55.8405C12.6734 56.3745 12.6268 56.9166 12.4695 57.4313L9.54669 67.039L19.1392 64.1162C19.6555 63.959 20.1993 63.913 20.7347 63.9814C21.2701 64.0498 21.7849 64.231 22.2451 64.5131C26.2681 66.9693 30.8053 68.4604 35.5011 68.8697C40.1968 69.279 44.9236 68.5952 49.3109 66.872C53.6982 65.1488 57.6268 62.4329 60.7888 58.9373C63.9509 55.4418 66.2604 51.2614 67.5365 46.7238C68.8126 42.1863 69.0205 37.4148 68.144 32.7835C67.2674 28.1521 65.3302 23.7867 62.4842 20.0293C59.6382 16.2719 55.9607 13.2247 51.7399 11.1264C47.5191 9.02809 42.8698 7.93577 38.1562 7.93503Z" fill="white"/>
<path d="M119.881 16.9647C121.177 16.9647 122.281 18.0687 122.281 19.3647V48.0687C122.281 49.4127 121.177 50.4688 119.881 50.4688C118.537 50.4688 117.481 49.4127 117.481 48.0687V36.2127H102.648V48.0687C102.648 49.4127 101.545 50.4688 100.249 50.4688C98.9045 50.4688 97.8485 49.4127 97.8485 48.0687V19.3647C97.8485 18.0687 98.9045 16.9647 100.249 16.9647C101.545 16.9647 102.648 18.0687 102.648 19.3647V31.4127H117.481V19.3647C117.481 18.0687 118.537 16.9647 119.881 16.9647ZM137.125 26.4688C143.893 26.4688 148.933 31.8447 148.933 38.6127V48.0207C148.933 49.4127 147.925 50.4207 146.533 50.4207C145.573 50.4207 144.229 49.4127 144.229 48.0207C142.165 49.7487 139.861 50.4207 137.125 50.4207C130.357 50.4207 124.981 45.3807 124.981 38.6127C124.981 31.8447 130.357 26.4688 137.125 26.4688ZM137.125 45.7167C141.157 45.7167 144.229 42.6447 144.229 38.6127C144.229 34.5807 141.157 31.1727 137.125 31.1727C133.093 31.1727 129.685 34.5807 129.685 38.6127C129.685 42.6447 133.093 45.7167 137.125 45.7167ZM163.755 26.2767C170.427 26.2767 175.803 31.6527 175.803 38.3247C175.803 44.9487 170.427 50.3727 163.755 50.3727C157.131 50.3727 151.707 44.9487 151.707 38.3247V38.2767V16.7727C151.707 15.4767 152.763 14.4207 154.107 14.4207C155.403 14.4207 156.459 15.4767 156.459 16.7727V28.7247C158.475 27.1887 161.019 26.2767 163.755 26.2767ZM163.755 45.6207C167.787 45.6207 171.051 42.3087 171.051 38.3247C171.051 34.2927 167.787 31.0287 163.755 31.0287C159.723 31.0287 156.459 34.2927 156.459 38.2767V38.3247C156.459 42.3567 159.723 45.6207 163.755 45.6207ZM180.966 50.5168C179.622 50.5168 178.566 49.4607 178.566 48.1167V16.8687C178.566 15.5727 179.622 14.5167 180.966 14.5167C182.262 14.5167 183.318 15.5727 183.318 16.8687V48.1167C183.318 49.4607 182.262 50.5168 180.966 50.5168ZM188.701 50.5168C187.357 50.5168 186.301 49.4607 186.301 48.1167V28.7727C186.301 27.4767 187.357 26.4207 188.701 26.4207C189.997 26.4207 191.053 27.4767 191.053 28.7727V48.1167C191.053 49.4607 189.997 50.5168 188.701 50.5168ZM188.701 21.6207C188.077 21.6207 187.453 21.3807 187.021 20.9487C186.589 20.5167 186.301 19.8927 186.301 19.2687C186.301 18.6447 186.589 18.0207 187.021 17.5887C187.453 17.1567 188.077 16.8687 188.701 16.8687C189.325 16.8687 189.949 17.1567 190.381 17.5887C190.812 18.0207 191.053 18.6447 191.053 19.2687C191.053 19.8927 190.812 20.5167 190.381 20.9487C189.949 21.3807 189.325 21.6207 188.701 21.6207ZM206.867 38.4207L213.203 46.6287C214.019 47.6847 213.827 49.1727 212.771 49.9407C212.339 50.2767 211.859 50.4688 211.331 50.4688C210.611 50.4688 209.939 50.1327 209.459 49.5567L203.843 42.3087L198.227 49.5567C197.747 50.1327 197.075 50.4688 196.355 50.4688C195.827 50.4688 195.347 50.2767 194.915 49.9407C193.859 49.1727 193.667 47.6847 194.483 46.6287L200.819 38.4207L194.483 30.2127C193.667 29.1567 193.859 27.6687 194.915 26.8527C195.923 26.0367 197.411 26.2288 198.227 27.2847L203.843 34.5327L209.459 27.2847C210.275 26.2288 211.763 26.0367 212.771 26.8527C213.827 27.6687 214.019 29.1567 213.203 30.2127L206.867 38.4207Z" fill="white"/>
</svg>
